<svg width="29" height="28" viewBox="0 0 29 28" fill="none" xmlns="http://www.w3.org/2000/svg">
<rect x="0.5" width="28" height="28" rx="14" fill="#FE3745"/>
<path d="M16.1449 13.9999L21.1616 8.99489C21.3813 8.7752 21.5047 8.47724 21.5047 8.16656C21.5047 7.85587 21.3813 7.55791 21.1616 7.33822C20.9419 7.11854 20.6439 6.99512 20.3333 6.99512C20.0226 6.99512 19.7246 7.11854 19.5049 7.33822L14.4999 12.3549L9.49493 7.33822C9.27524 7.11854 8.97728 6.99512 8.6666 6.99512C8.35591 6.99512 8.05795 7.11854 7.83826 7.33822C7.61857 7.55791 7.49516 7.85587 7.49516 8.16656C7.49516 8.47724 7.61857 8.7752 7.83826 8.99489L12.8549 13.9999L7.83826 19.0049C7.72891 19.1133 7.64212 19.2424 7.58289 19.3846C7.52366 19.5267 7.49316 19.6792 7.49316 19.8332C7.49316 19.9872 7.52366 20.1397 7.58289 20.2819C7.64212 20.4241 7.72891 20.5531 7.83826 20.6616C7.94672 20.7709 8.07575 20.8577 8.21792 20.9169C8.36009 20.9762 8.51258 21.0067 8.6666 21.0067C8.82061 21.0067 8.9731 20.9762 9.11527 20.9169C9.25744 20.8577 9.38647 20.7709 9.49493 20.6616L14.4999 15.6449L19.5049 20.6616C19.6134 20.7709 19.7424 20.8577 19.8846 20.9169C20.0268 20.9762 20.1792 21.0067 20.3333 21.0067C20.4873 21.0067 20.6398 20.9762 20.7819 20.9169C20.9241 20.8577 21.0531 20.7709 21.1616 20.6616C21.2709 20.5531 21.3577 20.4241 21.417 20.2819C21.4762 20.1397 21.5067 19.9872 21.5067 19.8332C21.5067 19.6792 21.4762 19.5267 21.417 19.3846C21.3577 19.2424 21.2709 19.1133 21.1616 19.0049L16.1449 13.9999Z" fill="white"/>
</svg>
