<svg width="27" height="27" viewBox="0 0 27 27" fill="none" xmlns="http://www.w3.org/2000/svg">
<path d="M13.5 27C20.8998 27 26.8984 21.0013 26.8984 13.6016C26.8984 6.20181 20.8998 0.203125 13.5 0.203125C6.10025 0.203125 0.101562 6.20181 0.101562 13.6016C0.101562 21.0013 6.10025 27 13.5 27Z" fill="#1A2B63"/>
<path d="M9.29487 14.7034C9.29487 14.2574 9.3116 13.8126 9.34289 13.3711C8.0271 14.1121 7.12061 15.7627 7.12061 17.6738C7.12061 18.6831 7.37157 19.6457 7.84631 20.4574C7.87572 20.5077 7.92232 20.5457 7.97752 20.5644C8.03272 20.5831 8.09281 20.5813 8.14676 20.5592C8.77069 20.3042 9.43744 20.1731 10.1289 20.1677C9.58291 18.4872 9.29487 16.6106 9.29487 14.7034Z" fill="#FE3745"/>
<path d="M7.74065 17.6738C7.74065 16.0954 8.35944 14.6951 9.31609 13.8379C9.32342 13.6819 9.33189 13.5263 9.34289 13.3711C8.02711 14.1121 7.12061 15.7627 7.12061 17.6738C7.12061 18.6831 7.37157 19.6457 7.84631 20.4574C7.87572 20.5077 7.92232 20.5457 7.97752 20.5644C8.03272 20.5831 8.09282 20.5813 8.14676 20.5592C8.24961 20.5176 8.35377 20.4794 8.45908 20.4445C7.98915 19.6354 7.74065 18.6778 7.74065 17.6738Z" fill="#B7092B"/>
<path d="M17.6568 13.3711C17.6885 13.8145 17.7045 14.2589 17.7048 14.7034C17.7048 16.6105 17.4168 18.4872 16.8708 20.1677C17.5623 20.1731 18.229 20.3042 18.8529 20.5592C18.9068 20.5813 18.9669 20.5831 19.0221 20.5644C19.0773 20.5457 19.1239 20.5077 19.1533 20.4574C19.6281 19.6457 19.879 18.6831 19.879 17.6738C19.8791 15.7627 18.9726 14.1121 17.6568 13.3711ZM11.4058 20.796V22.0568C11.4058 22.2072 11.5288 22.3302 11.6792 22.3302H15.3205C15.4708 22.3302 15.5939 22.2072 15.5939 22.0568V20.796H11.4058Z" fill="#FE3745"/>
<path d="M12.3358 22.0567V20.7959H11.4058V22.0567C11.4058 22.2071 11.5288 22.3301 11.6792 22.3301H12.6093C12.4589 22.3301 12.3358 22.2071 12.3358 22.0567Z" fill="#B7092B"/>
<path d="M16.8279 8.93945H10.1719C9.56196 10.6978 9.24023 12.677 9.24023 14.7035C9.24023 16.8101 9.58963 18.8809 10.2506 20.6917C10.2676 20.7384 10.2985 20.7786 10.3392 20.8071C10.3799 20.8355 10.4283 20.8508 10.4779 20.8508H16.5219C16.5716 20.8508 16.62 20.8355 16.6607 20.8071C16.7013 20.7786 16.7323 20.7384 16.7493 20.6917C17.4102 18.8809 17.7596 16.8101 17.7596 14.7035C17.7597 12.677 17.4379 10.6979 16.8279 8.93945Z" fill="#EEF6FF"/>
<path d="M11.0256 20.6917C10.3646 18.8809 10.0153 16.8101 10.0153 14.7035C10.0153 12.677 10.337 10.6978 10.947 8.93945H10.1719C9.56196 10.6978 9.24023 12.677 9.24023 14.7035C9.24023 16.8101 9.58963 18.8809 10.2506 20.6917C10.2676 20.7384 10.2985 20.7786 10.3392 20.8071C10.3799 20.8355 10.4283 20.8508 10.4779 20.8508H11.253C11.2033 20.8508 11.1549 20.8355 11.1142 20.8071C11.0736 20.7786 11.0426 20.7384 11.0256 20.6917Z" fill="#D9EAFC"/>
<path d="M11.9238 8.93945V9.84694C11.9238 9.99733 12.0469 10.1204 12.1973 10.1204H14.8027C14.9531 10.1204 15.0761 9.99733 15.0761 9.84694V8.93945H11.9238Z" fill="#EA2A3D"/>
<path d="M12.5439 9.84694V8.93945H11.9238V9.84694C11.9238 9.99733 12.0469 10.1204 12.1973 10.1204H12.8173C12.6669 10.1204 12.5439 9.99733 12.5439 9.84694Z" fill="#B7092B"/>
<path d="M13.4998 4C13.4444 3.99997 13.3906 4.01901 13.3475 4.05392C12.1259 5.04316 11.0969 6.54379 10.3719 8.39359C10.2946 8.59211 10.2215 8.79228 10.1528 8.99395H16.8467C16.7781 8.79228 16.705 8.59211 16.6277 8.39359C15.9027 6.54379 14.8737 5.04316 13.6521 4.05392C13.609 4.019 13.5553 3.99996 13.4998 4Z" fill="#FE3745"/>
<path d="M13.8873 4.25309C13.8103 4.18508 13.7319 4.11867 13.6521 4.05392C13.6077 4.01799 13.5538 4 13.4998 4C13.4458 4 13.3919 4.01799 13.3475 4.05392C12.1259 5.04316 11.0969 6.54379 10.3719 8.39359C10.2946 8.59211 10.2215 8.79228 10.1528 8.99395H10.9279C10.9966 8.79228 11.0696 8.59211 11.1469 8.39359C11.825 6.66377 12.7688 5.2396 13.8873 4.25309Z" fill="#B7092B"/>
<path d="M13.5001 16.6848C15.0411 16.6848 16.2903 15.4356 16.2903 13.8946C16.2903 12.3537 15.0411 11.1045 13.5001 11.1045C11.9592 11.1045 10.71 12.3537 10.71 13.8946C10.71 15.4356 11.9592 16.6848 13.5001 16.6848Z" fill="#445EA0"/>
<path d="M13.4999 15.6844C14.4885 15.6844 15.2899 14.883 15.2899 13.8945C15.2899 12.9059 14.4885 12.1045 13.4999 12.1045C12.5114 12.1045 11.71 12.9059 11.71 13.8945C11.71 14.883 12.5114 15.6844 13.4999 15.6844Z" fill="#69CDFF"/>
<path d="M12.3662 13.8945C12.3662 14.7709 12.9962 15.4998 13.8281 15.654C13.7216 15.6737 13.6121 15.6845 13.4999 15.6845C12.5113 15.6845 11.71 14.8831 11.71 13.8945C11.71 12.9059 12.5114 12.1045 13.4999 12.1045C13.612 12.1045 13.7216 12.1153 13.8281 12.135C12.9962 12.2892 12.3662 13.018 12.3662 13.8945Z" fill="#52BBEF"/>
</svg>
