<svg width="14" height="15" viewBox="0 0 14 15" fill="none" xmlns="http://www.w3.org/2000/svg">
<path d="M13.7426 7.33058C13.7426 11.0543 10.7239 14.0729 7.00023 14.0729C6.44284 14.0729 5.90121 14.0052 5.38309 13.8777C3.17516 12.9092 1.63281 10.7039 1.63281 8.13821C1.63281 4.67862 4.43764 1.87402 7.89723 1.87402C10.2305 1.87402 12.2661 3.14991 13.3439 5.04198C13.6019 5.75648 13.7426 6.52718 13.7426 7.33058Z" fill="#FEBC1F"/>
<path d="M13.3438 5.04161C12.266 3.14954 10.2304 1.87365 7.89713 1.87365C4.43754 1.87365 1.63271 4.67825 1.63271 8.13784C1.63271 10.7035 3.17506 12.9088 5.38299 13.8773C2.44034 13.1529 0.257812 10.4965 0.257812 7.33021C0.257812 3.60651 3.27643 0.587891 7.00013 0.587891C9.92044 0.587891 12.4071 2.44445 13.3438 5.04161Z" fill="#FFD06C"/>
<path d="M7.00015 11.7635C9.4487 11.7635 11.4336 9.77853 11.4336 7.32998C11.4336 4.88143 9.4487 2.89648 7.00015 2.89648C4.55159 2.89648 2.56665 4.88143 2.56665 7.32998C2.56665 9.77853 4.55159 11.7635 7.00015 11.7635Z" fill="#FFD06C"/>
<path d="M7.00007 2.45898C4.30978 2.45898 2.12866 4.63987 2.12866 7.3304C2.12866 10.0209 4.30954 12.2018 7.00007 12.2018C9.6906 12.2018 11.8715 10.0209 11.8715 7.3304C11.8715 4.63987 9.6906 2.45898 7.00007 2.45898ZM7.00007 11.7639C4.55155 11.7639 2.56658 9.77892 2.56658 7.3304C2.56658 4.88187 4.55155 2.8969 7.00007 2.8969C9.4486 2.8969 11.4336 4.88187 11.4336 7.3304C11.4336 9.77892 9.4486 11.7639 7.00007 11.7639Z" fill="#F9A83D"/>
<path d="M8.81111 7.83869C8.77395 7.88549 8.75467 7.94428 8.75749 8.00402L8.82358 9.49981C8.83157 9.67737 8.65542 9.80531 8.48914 9.74299L7.08696 9.21782C7.03099 9.19665 6.96913 9.19665 6.91316 9.21782L5.51098 9.74299C5.46088 9.7618 5.40985 9.76322 5.36328 9.75146L8.11896 5.85254C8.13589 5.86218 8.15424 5.86971 8.17305 5.87488L9.61615 6.27423C9.78737 6.3215 9.85463 6.52846 9.74386 6.66746L8.81111 7.83869Z" fill="#F9A83D"/>
<path d="M8.11884 5.85204L5.36317 9.75095C5.25498 9.7232 5.17078 9.62348 5.17619 9.4993L5.24252 8.00352C5.2451 7.94378 5.22605 7.88499 5.18866 7.83818L4.25591 6.66696C4.14537 6.52796 4.21264 6.321 4.38385 6.27373L5.82672 5.87438C5.88457 5.85862 5.93443 5.82217 5.9676 5.77231L6.7931 4.52323C6.89117 4.37507 7.10872 4.37507 7.20679 4.52323L8.0323 5.77231C8.0544 5.8057 8.08404 5.83322 8.11884 5.85204Z" fill="#FEBC1F"/>
<path d="M8.61156 3.72382V3.69559C8.6245 3.65655 8.6506 3.63398 8.68941 3.61845C9.11439 3.44959 9.41167 3.15184 9.58124 2.72733C9.59535 2.69205 9.61369 2.66454 9.65015 2.65137H9.6953C9.72987 2.66501 9.74892 2.69088 9.76256 2.72545C9.92978 3.14738 10.2245 3.44394 10.6447 3.61469C10.6885 3.63233 10.7221 3.65397 10.7339 3.70147V3.71276C10.7249 3.76427 10.6897 3.78638 10.6436 3.80496C10.2256 3.975 9.93213 4.27015 9.76421 4.68902C9.74986 4.725 9.73105 4.75299 9.69507 4.76828H9.64991C9.61487 4.7537 9.59535 4.72759 9.58124 4.69208C9.41308 4.27062 9.11815 3.97405 8.69764 3.80378C8.65695 3.78732 8.62497 3.76709 8.61133 3.72405L8.61156 3.72382Z" fill="white"/>
</svg>
