<svg width="16" height="12" viewBox="0 0 16 12" fill="none" xmlns="http://www.w3.org/2000/svg">
<path d="M8.19999 6.14634C8.55571 5.83843 8.84102 5.4576 9.03657 5.02969C9.23212 4.60178 9.33333 4.13681 9.33332 3.66634C9.33332 2.78229 8.98213 1.93444 8.35701 1.30932C7.73189 0.684197 6.88404 0.333008 5.99999 0.333008C5.11593 0.333008 4.26809 0.684197 3.64297 1.30932C3.01785 1.93444 2.66666 2.78229 2.66666 3.66634C2.66665 4.13681 2.76786 4.60178 2.96341 5.02969C3.15896 5.4576 3.44427 5.83843 3.79999 6.14634C2.86675 6.56893 2.07497 7.25136 1.51931 8.11204C0.963653 8.97271 0.667638 9.97521 0.666656 10.9997C0.666656 11.1765 0.736894 11.3461 0.861919 11.4711C0.986943 11.5961 1.15651 11.6663 1.33332 11.6663C1.51013 11.6663 1.6797 11.5961 1.80473 11.4711C1.92975 11.3461 1.99999 11.1765 1.99999 10.9997C1.99999 9.93881 2.42142 8.92139 3.17156 8.17125C3.92171 7.4211 4.93912 6.99967 5.99999 6.99967C7.06086 6.99967 8.07827 7.4211 8.82842 8.17125C9.57856 8.92139 9.99999 9.93881 9.99999 10.9997C9.99999 11.1765 10.0702 11.3461 10.1953 11.4711C10.3203 11.5961 10.4898 11.6663 10.6667 11.6663C10.8435 11.6663 11.013 11.5961 11.1381 11.4711C11.2631 11.3461 11.3333 11.1765 11.3333 10.9997C11.3323 9.97521 11.0363 8.97271 10.4807 8.11204C9.92501 7.25136 9.13323 6.56893 8.19999 6.14634V6.14634ZM5.99999 5.66634C5.60443 5.66634 5.21775 5.54904 4.88885 5.32928C4.55995 5.10952 4.30361 4.79716 4.15223 4.43171C4.00086 4.06626 3.96125 3.66412 4.03842 3.27616C4.11559 2.8882 4.30607 2.53183 4.58578 2.25213C4.86548 1.97242 5.22185 1.78194 5.60981 1.70477C5.99777 1.6276 6.3999 1.66721 6.76536 1.81858C7.13081 1.96996 7.44317 2.2263 7.66293 2.5552C7.88269 2.8841 7.99999 3.27078 7.99999 3.66634C7.99999 4.19677 7.78928 4.70548 7.4142 5.08055C7.03913 5.45563 6.53042 5.66634 5.99999 5.66634ZM12.4933 5.87967C12.92 5.39923 13.1987 4.80571 13.2959 4.17057C13.3931 3.53542 13.3046 2.88572 13.0412 2.29967C12.7777 1.71363 12.3505 1.2162 11.811 0.86729C11.2714 0.518374 10.6425 0.332836 9.99999 0.333008C9.82318 0.333008 9.65361 0.403246 9.52859 0.52827C9.40356 0.653294 9.33332 0.822864 9.33332 0.999675C9.33332 1.17649 9.40356 1.34605 9.52859 1.47108C9.65361 1.5961 9.82318 1.66634 9.99999 1.66634C10.5304 1.66634 11.0391 1.87705 11.4142 2.25213C11.7893 2.6272 12 3.13591 12 3.66634C11.999 4.0165 11.9062 4.36028 11.7307 4.66329C11.5552 4.9663 11.3032 5.21793 11 5.39301C10.9011 5.45002 10.8186 5.53145 10.7602 5.6295C10.7019 5.72755 10.6696 5.83894 10.6667 5.95301C10.6639 6.06618 10.6899 6.1782 10.7424 6.27851C10.7949 6.37882 10.8721 6.46411 10.9667 6.52634L11.2267 6.69967L11.3133 6.74634C12.1169 7.12749 12.7949 7.73033 13.2673 8.48388C13.7398 9.23743 13.987 10.1103 13.98 10.9997C13.98 11.1765 14.0502 11.3461 14.1753 11.4711C14.3003 11.5961 14.4698 11.6663 14.6467 11.6663C14.8235 11.6663 14.993 11.5961 15.1181 11.4711C15.2431 11.3461 15.3133 11.1765 15.3133 10.9997C15.3188 9.97663 15.0625 8.96918 14.569 8.07305C14.0754 7.17692 13.3609 6.42188 12.4933 5.87967V5.87967Z" fill="#3F2AA9"/>
</svg>
