<svg width="32" height="32" viewBox="0 0 32 32" fill="none" xmlns="http://www.w3.org/2000/svg">
<g clip-path="url(#clip0_333_2218)">
<rect width="32" height="32" rx="16" fill="white"/>
<path d="M23.75 16C23.7512 17.8238 23.1088 19.5895 21.9358 20.986C20.7629 22.3826 19.1347 23.3204 17.3381 23.6342C15.5415 23.9481 13.6918 23.6178 12.1149 22.7016C10.5379 21.7854 9.33487 20.3421 8.71771 18.6259L4.28491 22.1721C5.66326 24.7923 7.87978 26.875 10.5805 28.0878C13.2813 29.3007 16.3106 29.5736 19.1846 28.863C22.0587 28.1525 24.6118 26.4994 26.4362 24.1678C28.2607 21.8363 29.2514 18.9606 29.25 16" fill="#00AC47"/>
<path d="M23.75 16C23.749 17.233 23.4534 18.4479 22.8878 19.5435C22.3222 20.6392 21.503 21.5838 20.4984 22.2987L24.8808 25.8046C26.255 24.5674 27.354 23.0553 28.1067 21.3663C28.8593 19.6773 29.2488 17.8491 29.25 16" fill="#4285F4"/>
<path d="M8.25 16.0002C8.25192 15.1044 8.41019 14.2157 8.7177 13.3743L4.2849 9.82812C3.27698 11.7293 2.75 13.8484 2.75 16.0002C2.75 18.1521 3.27698 20.2711 4.2849 22.1723L8.7177 18.6261C8.41019 17.7847 8.25192 16.8961 8.25 16.0002Z" fill="#FFBA00"/>
<path d="M16 8.25001C17.6399 8.25047 19.2368 8.77451 20.558 9.74581L24.618 5.95651C23.1109 4.65707 21.3298 3.71477 19.4075 3.19993C17.4853 2.6851 15.4716 2.61101 13.5168 2.98322C11.5619 3.35542 9.71639 4.16429 8.11785 5.34948C6.51932 6.53466 5.20908 8.06555 4.28491 9.82791L8.71771 13.3741C9.25833 11.8755 10.2473 10.5797 11.5503 9.66289C12.8532 8.7461 14.4069 8.25278 16 8.25001Z" fill="#EA4435"/>
<path d="M29.25 15V16L27 19.5H16.5V14H28.25C28.5152 14 28.7696 14.1054 28.9571 14.2929C29.1446 14.4804 29.25 14.7348 29.25 15Z" fill="#4285F4"/>
</g>
<defs>
<clipPath id="clip0_333_2218">
<rect width="32" height="32" rx="16" fill="white"/>
</clipPath>
</defs>
</svg>
