<svg width="27" height="31" viewBox="0 0 27 31" fill="none" xmlns="http://www.w3.org/2000/svg">
<path d="M26.3185 22.5736L25.7507 21.8099C25.4959 21.4672 25.4039 21.0292 25.5042 20.6142C25.7357 19.6574 26.0215 17.7723 25.1605 16.0784C24.9718 15.7071 24.8326 15.3111 24.7638 14.9002C24.2844 12.0382 25.7284 8.18144 25.7561 8.09387C26.262 6.49481 26.4629 5.85675 25.2405 5.26875C23.9101 4.62875 22.728 5.368 22.0379 6.62231C21.9442 6.79256 20.5553 9.36931 20.237 12.7177L11.6634 1.18643C11.0564 0.369997 9.92105 0.118497 9.05323 0.649622C8.05805 1.25881 7.81936 2.57331 8.49974 3.48844L7.49992 2.14375C6.86286 1.28687 5.65155 1.06068 4.77855 1.67543C3.87567 2.31131 3.67917 3.56194 4.33405 4.44269L5.36017 5.82275C4.68705 4.91744 3.38042 4.76093 2.51017 5.51075C1.72874 6.18406 1.62911 7.36162 2.24461 8.18944L4.13998 10.7387C3.45967 9.82362 2.13211 9.67362 1.26211 10.4511C0.503548 11.129 0.417486 12.2887 1.02449 13.1051L10.3481 25.6451C11.3245 26.9584 12.6587 27.8487 14.1154 28.2814C15.486 28.6886 16.0452 29.7704 16.2053 29.9397L16.2712 30.0284C16.8195 30.7659 17.862 30.9193 18.5997 30.3709L25.9785 24.8847C26.7105 24.3403 26.8627 23.3056 26.3185 22.5736Z" fill="#F4D44E"/>
</svg>
