<svg width="40" height="40" viewBox="0 0 40 40" fill="none" xmlns="http://www.w3.org/2000/svg">
<path d="M20 40C30.5711 40 39.1406 31.4305 39.1406 20.8594C39.1406 10.2883 30.5711 1.71875 20 1.71875C9.42892 1.71875 0.859375 10.2883 0.859375 20.8594C0.859375 31.4305 9.42892 40 20 40Z" fill="#1A2B63"/>
<path d="M16.9372 29.6031C17.9255 29.6031 18.8359 30.1002 19.3727 30.9328C19.3792 30.943 19.388 30.9515 19.3984 30.9577C19.4088 30.9639 19.4205 30.9676 19.4325 30.9685C19.4445 30.9694 19.4566 30.9675 19.4678 30.9629C19.479 30.9584 19.489 30.9513 19.4969 30.9422C20.3016 30.032 21.4585 29.5099 22.6709 29.5099C23.0841 29.5099 23.4831 29.5704 23.8609 29.6812L22.4666 26.1074H17.5334L16.1239 29.7202C16.388 29.6426 16.6619 29.6031 16.9372 29.6031Z" fill="#D9EAFC"/>
<path d="M18.1765 26.1074H17.5334L16.1239 29.7202C16.3476 29.6552 16.5782 29.6175 16.8109 29.6077L18.1765 26.1074Z" fill="#AEC1ED"/>
<path d="M15.4364 33.2958C15.438 33.306 15.4415 33.3158 15.4469 33.3246C15.4522 33.3334 15.4592 33.3411 15.4676 33.3472C15.4759 33.3533 15.4853 33.3577 15.4953 33.3602C15.5054 33.3626 15.5158 33.3631 15.5259 33.3615C15.8012 33.3174 16.0796 33.295 16.3584 33.2946C17.6942 33.2946 18.9685 33.7966 19.9467 34.708C19.9612 34.7215 19.9802 34.7289 20 34.7289C20.0192 34.7289 20.0383 34.722 20.0533 34.708C21.0314 33.7966 22.3058 33.2946 23.6417 33.2946C23.915 33.2946 24.1952 33.3171 24.4741 33.3615C24.4843 33.3631 24.4947 33.3627 24.5047 33.3602C24.5148 33.3578 24.5242 33.3534 24.5325 33.3473C24.5493 33.3349 24.5605 33.3164 24.5636 33.2958C24.708 32.3241 25.0737 31.4038 25.6224 30.6005C24.8506 29.8762 23.8131 29.4316 22.6709 29.4316C21.3837 29.4316 20.2288 29.9962 19.4384 30.8903C18.9091 30.0691 17.987 29.5248 16.9373 29.5248C15.9303 29.5248 15.0409 30.0257 14.5027 30.7914C14.9817 31.5484 15.3034 32.4001 15.4364 33.2958Z" fill="#AEC1ED"/>
<path d="M15.5137 33.2845C15.0436 30.1196 12.3157 27.6914 9.02007 27.6914C6.73218 27.6914 4.71843 28.862 3.54312 30.6365C5.34265 33.6589 7.95132 36.1423 11.07 37.7905C11.4035 35.4806 13.2144 33.6498 15.5137 33.2845Z" fill="#445EA0"/>
<path d="M9.6757 28.4987C11.3501 28.4987 12.8849 29.0926 14.0839 30.0797C12.8798 28.6215 11.059 27.6914 9.02007 27.6914C6.73218 27.6914 4.71843 28.862 3.54312 30.6365C3.69835 30.8968 3.85975 31.1535 4.02718 31.4062C5.28648 29.6463 7.34656 28.4987 9.6757 28.4987Z" fill="#293D7C"/>
<path d="M30.9799 27.6914C27.6843 27.6914 24.9564 30.1197 24.4863 33.2845C26.7856 33.6498 28.5965 35.4806 28.93 37.7905C32.0486 36.1423 34.6574 33.6588 36.4569 30.6365C35.2816 28.862 33.2678 27.6914 30.9799 27.6914Z" fill="#445EA0"/>
<path d="M31.3771 27.7036C31.2449 27.6956 31.1124 27.6915 30.9799 27.6914C27.6843 27.6914 24.9564 30.1197 24.4863 33.2845C24.7287 33.3233 24.9682 33.3789 25.203 33.4509C25.8563 30.4604 28.3128 28.1447 31.3771 27.7036Z" fill="#293D7C"/>
<path d="M23.6416 33.2168C22.2341 33.2168 20.9545 33.7618 20 34.6511C19.0455 33.7617 17.7659 33.2168 16.3584 33.2168C13.6682 33.2168 11.4428 35.2048 11.0698 37.7916C13.736 39.2008 16.7745 39.9998 20 39.9998C23.2255 39.9998 26.264 39.2008 28.9302 37.7916C28.5572 35.2048 26.3318 33.2168 23.6416 33.2168Z" fill="#293D7C"/>
<path d="M17.4755 33.8812C18.1897 33.8803 18.8975 34.0173 19.5599 34.2845C18.6674 33.615 17.5599 33.2168 16.3584 33.2168C13.6681 33.2168 11.4427 35.2048 11.0697 37.7916C11.3846 37.958 11.7042 38.1154 12.0279 38.2638C12.5753 35.758 14.8053 33.8812 17.4755 33.8812Z" fill="#1A2B63"/>
<path d="M21.76 26.1075H20.5788L20.7295 27.2998C20.7503 27.4529 20.8306 27.5916 20.9531 27.6857C21.0756 27.7799 21.2304 27.8218 21.3837 27.8024C21.5369 27.7831 21.6764 27.7039 21.7716 27.5823C21.8668 27.4606 21.9101 27.3063 21.8921 27.1528L21.76 26.1075ZM18.24 26.1075L17.9302 28.5591C17.9197 28.6416 17.927 28.7255 17.9515 28.805C17.976 28.8845 18.0171 28.9579 18.0722 29.0203C18.1273 29.0827 18.195 29.1327 18.2709 29.1668C18.3468 29.201 18.4291 29.2186 18.5123 29.2185C18.6548 29.2183 18.7924 29.1661 18.8993 29.0718C19.0062 28.9774 19.075 28.8474 19.0929 28.7059L19.4213 26.1074L18.24 26.1075Z" fill="#AEC1ED"/>
<path d="M13.9928 15.29C13.9928 14.6529 14.0167 14.0175 14.0614 13.3867C12.1817 14.4452 10.8867 16.8034 10.8867 19.5334C10.8867 20.9753 11.2452 22.3504 11.9234 23.51C11.9655 23.5819 12.032 23.6362 12.1109 23.6629C12.1897 23.6896 12.2756 23.687 12.3527 23.6555C13.244 23.2911 14.1965 23.1039 15.1842 23.0961C14.4043 20.6955 13.9928 18.0145 13.9928 15.29Z" fill="#FE3745"/>
<path d="M11.7726 19.5334C11.7726 17.2785 12.6566 15.2782 14.0232 14.0535C14.0337 13.8308 14.0458 13.6084 14.0615 13.3867C12.1818 14.4452 10.8868 16.8034 10.8868 19.5334C10.8868 20.9753 11.2453 22.3504 11.9235 23.51C11.9656 23.5819 12.0321 23.6362 12.111 23.6629C12.1898 23.6896 12.2757 23.687 12.3527 23.6555C12.4997 23.5961 12.6485 23.5414 12.7989 23.4916C12.1276 22.3358 11.7726 20.9677 11.7726 19.5334Z" fill="#B7092B"/>
<path d="M25.9385 13.3867C25.9838 14.0201 26.0067 14.655 26.0071 15.29C26.0071 18.0145 25.5956 20.6954 24.8156 23.0961C25.8034 23.1039 26.7558 23.2911 27.6472 23.6555C27.7242 23.687 27.8101 23.6896 27.8889 23.6629C27.9678 23.6362 28.0344 23.5819 28.0764 23.51C28.7547 22.3504 29.1131 20.9753 29.1131 19.5334C29.1132 16.8034 27.8182 14.4452 25.9385 13.3867ZM17.0084 23.9938V25.7948C17.0084 26.0097 17.1842 26.1855 17.399 26.1855H22.6008C22.8157 26.1855 22.9915 26.0097 22.9915 25.7948V23.9938H17.0084Z" fill="#FE3745"/>
<path d="M18.3371 25.7952V23.9941H17.0084V25.7952C17.0084 26.0101 17.1842 26.1859 17.399 26.1859H18.7277C18.5129 26.1859 18.3371 26.0101 18.3371 25.7952Z" fill="#B7092B"/>
<path d="M24.7542 7.05566H15.2457C14.3743 9.56762 13.9147 12.395 13.9147 15.29C13.9147 18.2995 14.4138 21.2577 15.358 23.8447C15.3823 23.9112 15.4265 23.9688 15.4846 24.0094C15.5427 24.05 15.6119 24.0718 15.6828 24.0718H24.3171C24.388 24.0718 24.4572 24.05 24.5153 24.0094C24.5734 23.9688 24.6176 23.9112 24.6419 23.8447C25.5861 21.2577 26.0852 18.2995 26.0852 15.29C26.0853 12.395 25.6257 9.5677 24.7542 7.05566Z" fill="#EEF6FF"/>
<path d="M16.4653 23.8447C15.521 21.2577 15.022 18.2995 15.022 15.29C15.022 12.395 15.4816 9.56762 16.353 7.05566H15.2458C14.3744 9.56762 13.9148 12.395 13.9148 15.29C13.9148 18.2995 14.4139 21.2577 15.3581 23.8447C15.3824 23.9112 15.4266 23.9688 15.4847 24.0094C15.5428 24.05 15.612 24.0718 15.6829 24.0718H16.7901C16.7192 24.0718 16.65 24.05 16.5919 24.0094C16.5338 23.9688 16.4896 23.9112 16.4653 23.8447Z" fill="#D9EAFC"/>
<path d="M17.7484 7.05566V8.35207C17.7484 8.56691 17.9241 8.7427 18.139 8.7427H21.861C22.0759 8.7427 22.2516 8.56691 22.2516 8.35207V7.05566H17.7484Z" fill="#EA2A3D"/>
<path d="M18.6341 8.35207V7.05566H17.7484V8.35207C17.7484 8.56691 17.9241 8.7427 18.139 8.7427H19.0248C18.8099 8.7427 18.6341 8.56691 18.6341 8.35207Z" fill="#B7092B"/>
<path d="M20 7.75149e-08C19.9208 -3.91192e-05 19.844 0.0271581 19.7824 0.0770313C18.0373 1.49023 16.5673 3.63398 15.5316 6.27656C15.4211 6.56016 15.3167 6.84611 15.2186 7.13422H24.7813C24.6832 6.84611 24.5789 6.56016 24.4684 6.27656C23.4327 3.63398 21.9627 1.49023 20.2175 0.0770313C20.156 0.0271469 20.0792 -5.29934e-05 20 7.75149e-08Z" fill="#FE3745"/>
<path d="M20.5536 0.361563C20.4436 0.264399 20.3315 0.169535 20.2176 0.0770313C20.1541 0.0257031 20.0771 0 20 0C19.9229 0 19.8459 0.0257031 19.7824 0.0770313C18.0373 1.49023 16.5673 3.63398 15.5316 6.27656C15.4211 6.56016 15.3167 6.84611 15.2186 7.13422H16.3258C16.4239 6.84611 16.5283 6.56016 16.6388 6.27656C17.6073 3.80539 18.9556 1.77086 20.5536 0.361563Z" fill="#B7092B"/>
<path d="M20 18.1213C22.2014 18.1213 23.9859 16.3367 23.9859 14.1354C23.9859 11.934 22.2014 10.1494 20 10.1494C17.7986 10.1494 16.0141 11.934 16.0141 14.1354C16.0141 16.3367 17.7986 18.1213 20 18.1213Z" fill="#445EA0"/>
<path d="M20 16.6923C21.4123 16.6923 22.5571 15.5475 22.5571 14.1352C22.5571 12.723 21.4123 11.5781 20 11.5781C18.5878 11.5781 17.4429 12.723 17.4429 14.1352C17.4429 15.5475 18.5878 16.6923 20 16.6923Z" fill="#69CDFF"/>
<path d="M18.3803 14.1352C18.3803 15.3873 19.2804 16.4286 20.4688 16.6488C20.3167 16.677 20.1602 16.6924 20 16.6924C18.5877 16.6924 17.4429 15.5475 17.4429 14.1352C17.4429 12.723 18.5877 11.5781 20 11.5781C20.1602 11.5781 20.3167 11.5936 20.4688 11.6217C19.2804 11.842 18.3803 12.8831 18.3803 14.1352Z" fill="#52BBEF"/>
<path d="M8.60437 13.9637C8.56055 13.9637 8.51771 13.9507 8.48128 13.9263C8.44485 13.902 8.41645 13.8674 8.39969 13.8269C7.96351 12.7738 7.64195 12.4523 6.5889 12.0162C6.54839 11.9994 6.51377 11.971 6.4894 11.9346C6.46503 11.8982 6.45203 11.8553 6.45203 11.8115C6.45203 11.7676 6.46503 11.7248 6.4894 11.6884C6.51377 11.6519 6.54839 11.6235 6.5889 11.6068C7.64203 11.1705 7.96351 10.8489 8.39969 9.79593C8.41646 9.75545 8.44486 9.72085 8.48129 9.69651C8.51772 9.67217 8.56056 9.65918 8.60437 9.65918C8.64819 9.65918 8.69102 9.67217 8.72746 9.69651C8.76389 9.72085 8.79229 9.75545 8.80906 9.79593C9.24531 10.8489 9.56687 11.1705 10.6199 11.6068C10.6604 11.6236 10.695 11.652 10.7193 11.6884C10.7437 11.7248 10.7567 11.7677 10.7567 11.8115C10.7567 11.8553 10.7437 11.8981 10.7193 11.9346C10.695 11.971 10.6604 11.9994 10.6199 12.0162C9.56687 12.4523 9.24531 12.7738 8.80906 13.8269C8.79229 13.8674 8.7639 13.902 8.72747 13.9263C8.69103 13.9507 8.64819 13.9637 8.60437 13.9637Z" fill="#FFD00D"/>
<path d="M8.84258 13.384C8.4064 12.3309 8.08484 12.0095 7.03179 11.5733C6.98084 11.5522 6.93961 11.5128 6.91617 11.4629C6.80818 11.5133 6.69906 11.5613 6.5889 11.6068C6.54839 11.6235 6.51377 11.6519 6.4894 11.6884C6.46503 11.7248 6.45203 11.7677 6.45203 11.8115C6.45203 11.8553 6.46503 11.8982 6.4894 11.9346C6.51377 11.971 6.54839 11.9994 6.5889 12.0162C7.64195 12.4523 7.96351 12.7738 8.39969 13.8269C8.41646 13.8674 8.44486 13.902 8.48129 13.9263C8.51772 13.9506 8.56056 13.9636 8.60437 13.9636C8.64819 13.9636 8.69102 13.9506 8.72746 13.9263C8.76389 13.902 8.79229 13.8674 8.80906 13.8269C8.85452 13.7167 8.90247 13.6076 8.95289 13.4997C8.90302 13.4762 8.86369 13.4349 8.84258 13.384Z" fill="#FFAF10"/>
<path d="M32.146 15.7347C32.1075 15.7347 32.0699 15.7233 32.0378 15.7019C32.0058 15.6805 31.9808 15.6501 31.9661 15.6145C31.5827 14.6889 31.3001 14.4063 30.3745 14.0229C30.3389 14.0082 30.3085 13.9832 30.2871 13.9512C30.2657 13.9192 30.2543 13.8815 30.2543 13.843C30.2543 13.8045 30.2657 13.7668 30.2871 13.7348C30.3085 13.7028 30.3389 13.6778 30.3745 13.6631C31.3002 13.2796 31.5827 12.9969 31.9661 12.0714C31.9808 12.0358 32.0058 12.0054 32.0378 11.984C32.0699 11.9626 32.1075 11.9512 32.146 11.9512C32.1845 11.9512 32.2222 11.9626 32.2542 11.984C32.2862 12.0054 32.3112 12.0358 32.3259 12.0714C32.7094 12.997 32.992 13.2796 33.9177 13.6631C33.9533 13.6778 33.9838 13.7028 34.0052 13.7348C34.0266 13.7668 34.038 13.8045 34.038 13.843C34.038 13.8816 34.0266 13.9192 34.0051 13.9512C33.9837 13.9833 33.9533 14.0082 33.9177 14.0229C32.992 14.4063 32.7094 14.6889 32.3259 15.6145C32.3112 15.6501 32.2863 15.6805 32.2542 15.7019C32.2222 15.7233 32.1845 15.7347 32.146 15.7347Z" fill="white"/>
<path d="M32.3554 15.2248C31.9719 14.2992 31.6894 14.0166 30.7637 13.6332C30.7189 13.6146 30.6826 13.58 30.662 13.5361C30.5671 13.5804 30.4712 13.6226 30.3744 13.6626C30.3388 13.6774 30.3084 13.7023 30.287 13.7344C30.2656 13.7664 30.2542 13.804 30.2542 13.8425C30.2542 13.8811 30.2656 13.9187 30.287 13.9507C30.3084 13.9828 30.3388 14.0077 30.3744 14.0225C31.3001 14.4058 31.5827 14.6884 31.966 15.614C31.9808 15.6496 32.0057 15.68 32.0377 15.7014C32.0698 15.7228 32.1074 15.7342 32.1459 15.7342C32.1844 15.7342 32.2221 15.7228 32.2541 15.7014C32.2861 15.68 32.3111 15.6496 32.3259 15.614C32.3658 15.5172 32.408 15.4213 32.4523 15.3264C32.4085 15.3058 32.3739 15.2695 32.3554 15.2248Z" fill="#D9EAFC"/>
<path d="M30.1148 7.50532C30.0699 7.50532 30.026 7.49201 29.9887 7.46707C29.9514 7.44214 29.9223 7.40671 29.9051 7.36524C29.4584 6.28665 29.1291 5.95735 28.0505 5.51071C28.009 5.49355 27.9735 5.46448 27.9486 5.42716C27.9236 5.38984 27.9103 5.34596 27.9103 5.30106C27.9103 5.25617 27.9236 5.21229 27.9486 5.17497C27.9735 5.13765 28.009 5.10857 28.0505 5.09142C29.1291 4.64454 29.4584 4.31524 29.9051 3.23681C29.9223 3.19533 29.9513 3.15988 29.9887 3.13494C30.026 3.10999 30.0699 3.09668 30.1148 3.09668C30.1597 3.09668 30.2035 3.10999 30.2409 3.13494C30.2782 3.15988 30.3073 3.19533 30.3245 3.23681C30.7712 4.31532 31.1005 4.64462 32.1791 5.09142C32.2206 5.10858 32.2561 5.13767 32.281 5.17499C32.306 5.21232 32.3193 5.2562 32.3193 5.30109C32.3192 5.34598 32.3059 5.38986 32.281 5.42718C32.256 5.46449 32.2205 5.49356 32.1791 5.51071C31.1005 5.95735 30.7712 6.28673 30.3244 7.36524C30.3072 7.40671 30.2781 7.44214 30.2408 7.46708C30.2035 7.49201 30.1596 7.50532 30.1148 7.50532Z" fill="#FF9518"/>
<path d="M30.3587 6.91191C29.9119 5.8334 29.5826 5.5041 28.504 5.05738C28.4519 5.03574 28.4097 4.99544 28.3856 4.94434C28.275 4.99604 28.1632 5.04517 28.0504 5.09168C28.0089 5.10884 27.9734 5.13792 27.9485 5.17524C27.9235 5.21256 27.9102 5.25644 27.9102 5.30133C27.9102 5.34622 27.9235 5.3901 27.9485 5.42742C27.9734 5.46474 28.0089 5.49382 28.0504 5.51098C29.129 5.9577 29.4583 6.28699 29.905 7.36551C29.9222 7.40696 29.9513 7.44237 29.9886 7.46729C30.0259 7.49221 30.0698 7.50551 30.1147 7.50551C30.1595 7.50551 30.2034 7.49221 30.2407 7.46729C30.2781 7.44237 30.3072 7.40696 30.3244 7.36551C30.3709 7.25269 30.4201 7.14094 30.4717 7.03035C30.4206 7.00633 30.3803 6.96409 30.3587 6.91191Z" fill="#EF8318"/>
</svg>
