<svg width="36" height="36" viewBox="0 0 36 36" fill="none" xmlns="http://www.w3.org/2000/svg">
<g clip-path="url(#clip0_23_3)">
<path d="M7.5 0H28.5C32.642 0 36 3.358 36 7.5V28.5C36 32.642 32.642 36 28.5 36H7.5C3.358 36 0 32.642 0 28.5V7.5C0 3.358 3.358 0 7.5 0Z" fill="#2962FF"/>
<path d="M15.499 20.087H12.926L16.211 15.741C16.283 15.646 16.263 15.506 16.167 15.435C16.131 15.407 16.083 15.391 16.036 15.391H11.284C10.866 15.391 10.525 15.733 10.525 16.15C10.525 16.567 10.867 16.909 11.284 16.909H13.419L10.123 21.259C10.047 21.354 10.067 21.49 10.163 21.565C10.203 21.597 10.25 21.613 10.298 21.609H15.495C15.913 21.589 16.235 21.231 16.215 20.81C16.195 20.42 15.885 20.11 15.495 20.09V20.086L15.499 20.087ZM32.104 15.391C31.686 15.391 31.345 15.733 31.345 16.15V18.699L27.241 15.442C27.15 15.366 27.01 15.378 26.935 15.474C26.903 15.514 26.887 15.561 26.887 15.613V20.85C26.887 21.268 27.229 21.609 27.646 21.609C28.063 21.609 28.405 21.271 28.405 20.85V18.301L32.509 21.562C32.604 21.638 32.744 21.622 32.819 21.526C32.851 21.486 32.867 21.439 32.867 21.391V16.15C32.864 15.729 32.526 15.391 32.104 15.391ZM21.245 20.23C19.507 20.23 18.211 19.315 18.211 18.496C18.211 17.677 19.511 16.762 21.245 16.762C22.983 16.762 24.279 17.677 24.279 18.496C24.279 19.315 22.986 20.23 21.245 20.23ZM21.245 15.243C18.732 15.243 16.692 16.698 16.692 18.496C16.692 20.294 18.732 21.749 21.245 21.749C23.758 21.749 25.798 20.294 25.798 18.496C25.798 16.698 23.758 15.243 21.245 15.243ZM6.29704 20.234C5.33904 20.234 4.55904 19.459 4.55904 18.5C4.55904 17.541 5.33404 16.762 6.29304 16.762C7.25204 16.762 8.03104 17.537 8.03104 18.496V18.5C8.03104 19.455 7.25604 20.23 6.29704 20.234ZM6.29704 15.243C4.50004 15.243 3.04404 16.698 3.04004 18.496C3.04004 20.293 4.49504 21.749 6.29304 21.753C8.09004 21.753 9.54604 20.298 9.55004 18.5V18.496C9.54604 16.699 8.09104 15.243 6.29704 15.243Z" fill="white"/>
</g>
<defs>
<clipPath id="clip0_23_3">
<rect width="36" height="36" fill="white"/>
</clipPath>
</defs>
</svg>
