<svg width="32" height="32" viewBox="0 0 32 32" fill="none" xmlns="http://www.w3.org/2000/svg">
<g clip-path="url(#clip0_333_1877)">
<path d="M16 31.5C24.5604 31.5 31.5 24.5604 31.5 16C31.5 7.43959 24.5604 0.5 16 0.5C7.43959 0.5 0.5 7.43959 0.5 16C0.5 24.5604 7.43959 31.5 16 31.5Z" fill="#AEC1ED"/>
<path d="M24.6563 7.49642C24.6406 7.42611 24.586 7.37142 24.5195 7.35189C22.2305 6.7933 16.9453 8.78548 14.082 11.6488C13.5703 12.1566 13.1055 12.7074 12.6914 13.2933C11.8086 13.2152 10.9258 13.2816 10.1719 13.6097C8.04689 14.5433 7.4297 16.9847 7.25392 18.0316C7.21876 18.2347 7.35548 18.43 7.56251 18.4652C7.59767 18.4691 7.63283 18.473 7.66798 18.4691L11.0781 18.0941C11.082 18.3519 11.0977 18.6097 11.125 18.8636C11.1406 19.0394 11.2227 19.2074 11.3477 19.3324L12.668 20.6488C12.793 20.7738 12.961 20.8558 13.1367 20.8714C13.3906 20.8988 13.6445 20.9144 13.9024 20.9183L13.5274 24.3245C13.5039 24.5316 13.6563 24.7191 13.8633 24.7386C13.8985 24.7425 13.9336 24.7425 13.9649 24.7347C15.0117 24.5667 17.457 23.9495 18.3867 21.8245C18.7149 21.0706 18.7813 20.1917 18.707 19.3128C19.2969 18.8988 19.8477 18.43 20.3555 17.9222C23.2266 15.0667 25.207 9.89877 24.6563 7.49642ZM20.1367 14.512C19.4063 15.2425 18.2188 15.2464 17.4883 14.512C16.7539 13.7816 16.7539 12.5941 17.4883 11.8597C18.2188 11.1253 19.4063 11.1253 20.1406 11.8597C20.8711 12.5941 20.8711 13.7816 20.1367 14.512Z" fill="#445EA0"/>
<path d="M12.5781 21.6023C12.3633 21.8171 12.0195 21.8992 11.6055 21.9734C10.6758 22.1296 9.85547 21.3288 10.0234 20.3913C10.0859 20.0359 10.2773 19.5359 10.3945 19.4187C10.4609 19.3523 10.4648 19.2429 10.3984 19.1765C10.3594 19.1374 10.3086 19.1179 10.2539 19.1257C9.73437 19.1882 9.25 19.4265 8.88281 19.7937C7.96094 20.7156 7.875 24.1257 7.875 24.1257C7.875 24.1257 11.2891 24.0398 12.207 23.1179C12.5781 22.7468 12.8125 22.2663 12.875 21.7429C12.8906 21.5828 12.6914 21.4851 12.5781 21.6023Z" fill="#445EA0"/>
</g>
<defs>
<clipPath id="clip0_333_1877">
<rect width="32" height="32" fill="white"/>
</clipPath>
</defs>
</svg>
