<svg width="143" height="221" viewBox="0 0 143 221" fill="none" xmlns="http://www.w3.org/2000/svg">
<path d="M71.2779 192.638H55.1128L59.9983 209.787C60.2053 210.57 60.6735 211.261 61.3261 211.745C61.9788 212.229 62.7771 212.478 63.5905 212.451H79.073C79.882 212.459 80.6714 212.203 81.3202 211.722C81.9689 211.241 82.4414 210.561 82.6653 209.787L87.5507 192.638H71.2779Z" fill="#A3242B"/>
<path d="M71.2779 177.134H40.6002L50.1555 198.825C50.4986 199.608 51.0638 200.273 51.7818 200.74C52.4998 201.207 53.3392 201.455 54.1968 201.454H88.323C89.1811 201.458 90.0215 201.211 90.7399 200.743C91.4583 200.276 92.0231 199.609 92.3643 198.825L101.92 177.134H71.2779Z" fill="#D23D3D"/>
<path d="M5.68369 166.493V216.26C5.68369 216.26 18.8492 195.212 28.5123 185.27C25.8406 170.692 24.0711 155.965 23.2138 141.172L5.68369 166.493Z" fill="#D23D3D"/>
<path d="M35.3735 180.245V123.611L23.2138 141.172C24.0711 155.965 25.8406 170.692 28.5123 185.27C31.1885 182.498 33.5953 180.602 35.3735 180.245Z" fill="#A3242B"/>
<path d="M136.89 166.493L119.36 141.172C118.455 155.966 116.656 170.692 113.972 185.27C123.617 195.212 136.8 216.26 136.8 216.26L136.89 166.493Z" fill="#D23D3D"/>
<path d="M107.182 123.611V180.245C108.978 180.602 111.367 182.498 114.061 185.27C116.746 170.691 118.545 155.965 119.45 141.172L107.182 123.611Z" fill="#A3242B"/>
<path d="M136.423 144.444C136.423 144.444 136.136 145.642 135.74 147.735C135.543 148.772 135.309 150.042 135.094 151.508C134.878 152.974 134.591 154.602 134.34 156.39C133.801 159.966 133.316 164.151 132.885 168.639C132.454 173.128 132.076 177.884 131.807 182.659C131.538 187.434 131.322 192.226 131.196 196.697C131.196 198.932 131.196 201.096 131.089 203.152C130.981 205.209 131.089 207.14 131.089 208.946C131.089 210.752 131.089 212.379 131.089 213.828C131.089 215.276 131.196 216.546 131.232 217.601C131.232 218.155 131.232 218.656 131.232 219.085C131.232 219.56 131.421 220.014 131.758 220.35C132.095 220.685 132.552 220.874 133.028 220.874H140.608C141.084 220.874 141.541 220.685 141.878 220.35C142.215 220.014 142.404 219.56 142.404 219.085C142.404 218.656 142.404 218.155 142.404 217.601C142.404 216.546 142.512 215.276 142.53 213.828C142.548 212.379 142.638 210.734 142.62 208.946C142.602 207.158 142.62 205.209 142.62 203.152C142.62 201.096 142.62 198.932 142.512 196.697C142.404 192.226 142.189 187.451 141.901 182.659C141.614 177.866 141.273 173.11 140.841 168.639C140.41 164.169 139.907 159.984 139.387 156.39C139.135 154.602 138.884 152.956 138.632 151.508C138.381 150.059 138.165 148.772 137.968 147.735C137.59 145.642 137.303 144.444 137.303 144.444H136.423Z" fill="#A3242B"/>
<path d="M27.2657 134.028C27.2657 134.374 27.2657 134.721 27.2657 135.068C28.1238 151.011 30.1167 166.872 33.2293 182.532C33.37 183.238 33.7544 183.872 34.3154 184.323C34.8763 184.774 35.578 185.014 36.2978 185H106.66C107.369 184.994 108.054 184.746 108.602 184.297C109.151 183.848 109.529 183.225 109.675 182.532C113.408 164.055 115.493 145.283 115.905 126.437C116.372 98.423 112.477 75.7449 106.793 57.7892C100.816 39.9001 88.8626 12.8998 71.4388 0C68.437 2.36119 52.0272 16.0081 39.6998 47.544C29.1868 74.064 25.8515 105.64 27.2657 134.028Z" fill="url(#paint0_linear_333_5208)"/>
<path fill-rule="evenodd" clip-rule="evenodd" d="M37.0618 128.994C33.3798 128.297 29.957 126.894 26.9575 126C26.9575 128.825 27.1103 132.285 27.254 135.217C30.3433 136.112 33.7211 136.898 37.439 137.596L37.4289 137.445C37.2619 134.953 37.2854 135.302 37.439 137.596C48.6106 139.549 59.9357 140.5 71.278 140.439C85.9946 140.536 101.183 139.3 115.39 135.217C115.534 132.285 115.624 129.424 115.678 126.598C113.02 127.367 110.11 128.082 106.985 128.708C95.2134 130.915 83.2559 131.987 71.278 131.909C59.8076 131.97 48.3551 130.994 37.0618 128.994Z" fill="#A1A7AA"/>
<path fill-rule="evenodd" clip-rule="evenodd" d="M46.8659 55.426C47.4415 53.7038 48.031 52.0228 48.6288 50.3831C45.5882 49.6176 42.5905 48.6924 39.6482 47.6113C38.331 50.8898 37.0977 54.3172 35.9482 57.8937C39.0016 58.7878 42.1388 59.5627 45.3598 60.2184L46.0603 57.8937C46.3136 57.0989 46.5702 56.3125 46.8297 55.5346C46.5627 56.3358 46.3043 57.146 46.0604 57.9652L45.4138 60.2899C53.9248 62.025 62.5902 62.8998 71.2778 62.9007C80.4621 62.9126 89.621 61.9414 98.5967 60.0038L98.5968 60.0038C101.327 59.4137 103.985 58.752 106.625 57.9831C105.428 54.4066 104.231 50.9732 103.033 47.6829C100.555 48.6127 97.9861 49.4711 95.3278 50.1327C96.2081 52.5867 97.0883 55.1609 97.9348 57.8216C97.087 55.1602 96.1722 52.5691 95.2919 50.1327C87.4555 52.1926 79.3828 53.2265 71.2778 53.2085C63.6433 53.2183 56.0366 52.2934 48.6288 50.4546L48.5799 50.5887C48.0059 52.1632 47.418 53.7756 46.8659 55.426Z" fill="#A2AAAD"/>
<path d="M79.417 115.883C89.4445 111.402 93.9252 99.6767 89.425 89.6933C84.9248 79.7098 73.1478 75.2487 63.1203 79.7292C53.0928 84.2097 48.6121 95.935 53.1123 105.918C57.6125 115.902 69.3896 120.363 79.417 115.883Z" fill="#303B5A"/>
<path d="M71.2779 84.1272H70.4696L57.5735 97.4496V97.7357C57.5703 99.0621 57.764 100.382 58.1483 101.652L74.7084 84.5206C73.585 84.2526 72.4331 84.1205 71.2779 84.1272Z" fill="#D3E8FD"/>
<path d="M74.7084 84.5742L58.1483 101.706C58.8353 103.988 60.1101 106.053 61.8462 107.693C63.5823 109.334 65.7193 110.494 68.0449 111.058L84.4793 94.0698C83.8199 91.7781 82.572 89.6971 80.8586 88.032C79.1452 86.3669 77.0255 85.1751 74.7084 84.5742Z" fill="#92CBFC"/>
<path d="M57.5735 97.503L70.5594 84.1807C67.1059 84.3603 63.8483 85.8332 61.4399 88.304C59.0315 90.7748 57.6504 94.0608 57.5735 97.503Z" fill="#92CBFC"/>
<path d="M84.9283 98.3438L72.3555 111.398C75.6892 111.122 78.8068 109.643 81.1221 107.239C83.4374 104.835 84.791 101.672 84.9283 98.3438Z" fill="#92CBFC"/>
<path d="M84.9284 97.7889C84.9216 96.5315 84.7464 95.2806 84.4075 94.0693L67.973 111.058C69.0312 111.316 70.1165 111.448 71.206 111.451C71.5653 111.451 71.9245 111.451 72.2837 111.451L84.8565 98.3969C84.9284 98.1465 84.9284 97.9677 84.9284 97.7889Z" fill="#D3E8FD"/>
<path d="M71.2779 81.82C71.7342 81.82 72.1041 81.4517 72.1041 80.9974C72.1041 80.5431 71.7342 80.1748 71.2779 80.1748C70.8216 80.1748 70.4517 80.5431 70.4517 80.9974C70.4517 81.4517 70.8216 81.82 71.2779 81.82Z" fill="#C4C9CC"/>
<path d="M71.2779 115.403C71.7342 115.403 72.1041 115.035 72.1041 114.58C72.1041 114.126 71.7342 113.758 71.2779 113.758C70.8216 113.758 70.4517 114.126 70.4517 114.58C70.4517 115.035 70.8216 115.403 71.2779 115.403Z" fill="#C4C9CC"/>
<path d="M58.7769 86.505C58.7009 86.4302 58.6405 86.3411 58.5993 86.2429C58.5581 86.1446 58.5369 86.0393 58.5369 85.9328C58.5369 85.8264 58.5581 85.721 58.5993 85.6227C58.6405 85.5245 58.7009 85.4354 58.7769 85.3606C58.9318 85.2066 59.1417 85.1201 59.3606 85.1201C59.5795 85.1201 59.7895 85.2066 59.9444 85.3606C60.0895 85.5161 60.1702 85.7205 60.1702 85.9328C60.1702 86.1451 60.0895 86.3495 59.9444 86.505C59.7895 86.659 59.5795 86.7455 59.3606 86.7455C59.1417 86.7455 58.9318 86.659 58.7769 86.505Z" fill="#C4C9CC"/>
<path d="M82.6293 110.235C82.5533 110.16 82.4929 110.071 82.4517 109.972C82.4106 109.874 82.3893 109.769 82.3893 109.662C82.3893 109.556 82.4106 109.45 82.4517 109.352C82.4929 109.254 82.5533 109.165 82.6293 109.09C82.7842 108.936 82.9942 108.85 83.2131 108.85C83.4319 108.85 83.6419 108.936 83.7968 109.09C83.942 109.246 84.0227 109.45 84.0227 109.662C84.0227 109.875 83.942 110.079 83.7968 110.235C83.6419 110.388 83.4319 110.475 83.2131 110.475C82.9942 110.475 82.7842 110.388 82.6293 110.235Z" fill="#C4C9CC"/>
<path d="M88.1614 98.612C88.6177 98.612 88.9876 98.2437 88.9876 97.7894C88.9876 97.3351 88.6177 96.9668 88.1614 96.9668C87.7051 96.9668 87.3351 97.3351 87.3351 97.7894C87.3351 98.2437 87.7051 98.612 88.1614 98.612Z" fill="#C4C9CC"/>
<path d="M54.4123 98.612C54.8686 98.612 55.2386 98.2437 55.2386 97.7894C55.2386 97.3351 54.8686 96.9668 54.4123 96.9668C53.956 96.9668 53.5861 97.3351 53.5861 97.7894C53.5861 98.2437 53.956 98.612 54.4123 98.612Z" fill="#C4C9CC"/>
<path d="M82.6293 85.343C82.7842 85.189 82.9942 85.1025 83.2131 85.1025C83.4319 85.1025 83.6419 85.189 83.7968 85.343C83.942 85.4985 84.0227 85.7029 84.0227 85.9152C84.0227 86.1275 83.942 86.332 83.7968 86.4875C83.6419 86.6414 83.4319 86.7279 83.2131 86.7279C82.9942 86.7279 82.7842 86.6414 82.6293 86.4875C82.5533 86.4126 82.4929 86.3235 82.4517 86.2253C82.4106 86.1271 82.3893 86.0217 82.3893 85.9152C82.3893 85.8088 82.4106 85.7034 82.4517 85.6052C82.4929 85.5069 82.5533 85.4178 82.6293 85.343Z" fill="#C4C9CC"/>
<path d="M59.3517 110.486C59.808 110.486 60.1779 110.118 60.1779 109.663C60.1779 109.209 59.808 108.841 59.3517 108.841C58.8954 108.841 58.5255 109.209 58.5255 109.663C58.5255 110.118 58.8954 110.486 59.3517 110.486Z" fill="#C4C9CC"/>
<path d="M6.1507 144.444C6.1507 144.444 6.42012 145.642 6.81526 147.735C7.01284 148.772 7.24633 150.042 7.47983 151.508C7.71332 152.974 7.98274 154.602 8.21624 156.39C8.75507 159.966 9.24002 164.151 9.68905 168.639C10.1381 173.128 10.4793 177.884 10.7488 182.659C11.0182 187.434 11.2517 192.226 11.3594 196.697C11.3594 198.932 11.3594 201.096 11.4672 203.152C11.575 205.209 11.4672 207.14 11.4672 208.946C11.4672 210.752 11.4672 212.379 11.3774 213.828C11.2876 215.276 11.2876 216.546 11.2517 217.601C11.2517 218.155 11.2517 218.656 11.2517 219.085C11.2517 219.56 11.0624 220.014 10.7256 220.35C10.3888 220.685 9.93191 220.874 9.45555 220.874H1.94779C1.47143 220.874 1.01458 220.685 0.677743 220.35C0.340905 220.014 0.151672 219.56 0.151672 219.085C0.151672 218.656 0.151672 218.155 0.151672 217.601C0.151672 216.546 0.0259439 215.276 0.00798274 213.828C-0.00997842 212.379 0.00798274 210.734 0.00798274 208.946C0.00798274 207.158 0.00798274 205.209 0.00798274 203.152C0.00798274 201.096 0.00798178 198.932 0.115749 196.697C0.241477 192.226 0.457011 187.451 0.726429 182.659C0.995846 177.866 1.35507 173.11 1.8041 168.639C2.25313 164.169 2.72012 159.984 3.25895 156.39C3.51041 154.602 3.7439 152.956 3.99536 151.508C4.24682 150.059 4.46235 148.772 4.65992 147.735C5.05507 145.642 5.34245 144.444 5.34245 144.444H6.1507Z" fill="#A3242B"/>
<path d="M69.2483 136.576C69.2483 137.112 69.4621 137.626 69.8427 138.005C70.2233 138.384 70.7396 138.597 71.2779 138.597C71.8162 138.597 72.3324 138.384 72.713 138.005C73.0937 137.626 73.3075 137.112 73.3075 136.576C73.3075 136.04 73.0937 135.526 72.713 135.148C72.3324 134.769 71.8162 134.556 71.2779 134.556C70.7396 134.556 70.2233 134.769 69.8427 135.148C69.4621 135.526 69.2483 136.04 69.2483 136.576Z" fill="#CED3D6"/>
<path d="M82.2522 135.79C82.2522 136.191 82.3717 136.582 82.5955 136.915C82.8193 137.247 83.1374 137.506 83.5093 137.659C83.8812 137.811 84.2902 137.85 84.6844 137.771C85.0786 137.691 85.4402 137.497 85.7233 137.213C86.0064 136.928 86.1983 136.567 86.2745 136.173C86.3508 135.78 86.3081 135.373 86.1517 135.005C85.9953 134.636 85.7324 134.321 85.3962 134.101C85.0601 133.882 84.666 133.766 84.2638 133.77C83.9981 133.77 83.7351 133.822 83.4898 133.924C83.2446 134.026 83.022 134.175 82.835 134.363C82.6479 134.55 82.5001 134.773 82.4001 135.018C82.3001 135.263 82.2498 135.526 82.2522 135.79Z" fill="#CED3D6"/>
<path d="M95.238 134.574C95.238 134.974 95.3571 135.365 95.5801 135.697C95.8031 136.029 96.1201 136.288 96.491 136.441C96.8618 136.594 97.2699 136.634 97.6636 136.556C98.0573 136.478 98.419 136.286 98.7028 136.003C98.9866 135.721 99.18 135.361 99.2583 134.969C99.3366 134.577 99.2964 134.17 99.1428 133.801C98.9892 133.432 98.729 133.116 98.3952 132.894C98.0615 132.672 97.6691 132.554 97.2677 132.554C96.7294 132.554 96.2131 132.767 95.8325 133.146C95.4519 133.525 95.238 134.038 95.238 134.574Z" fill="#CED3D6"/>
<path d="M108.278 131.945C108.274 132.346 108.39 132.738 108.611 133.073C108.832 133.407 109.148 133.669 109.518 133.825C109.889 133.981 110.297 134.023 110.692 133.947C111.087 133.871 111.451 133.68 111.736 133.398C112.022 133.116 112.217 132.756 112.297 132.364C112.376 131.972 112.337 131.564 112.184 131.194C112.031 130.824 111.771 130.507 111.437 130.284C111.103 130.061 110.71 129.942 110.307 129.942C110.042 129.94 109.778 129.99 109.532 130.09C109.286 130.189 109.062 130.337 108.873 130.523C108.685 130.709 108.535 130.931 108.433 131.175C108.33 131.419 108.278 131.681 108.278 131.945Z" fill="#CED3D6"/>
<path d="M73.3075 136.576C73.3075 136.976 73.1884 137.367 72.9654 137.699C72.7424 138.031 72.4254 138.29 72.0545 138.443C71.6837 138.596 71.2756 138.636 70.8819 138.558C70.4882 138.48 70.1265 138.288 69.8427 138.005C69.5588 137.723 69.3655 137.363 69.2872 136.971C69.2089 136.579 69.2491 136.172 69.4027 135.803C69.5563 135.434 69.8165 135.118 70.1502 134.896C70.484 134.674 70.8764 134.556 71.2778 134.556C71.8161 134.556 72.3324 134.769 72.713 135.148C73.0936 135.526 73.3075 136.04 73.3075 136.576Z" fill="#CED3D6"/>
<path d="M60.3216 135.79C60.3216 136.19 60.2025 136.581 59.9795 136.913C59.7565 137.245 59.4395 137.504 59.0686 137.657C58.6978 137.81 58.2897 137.85 57.896 137.772C57.5023 137.694 57.1406 137.502 56.8568 137.219C56.5729 136.936 56.3796 136.576 56.3013 136.184C56.223 135.792 56.2632 135.386 56.4168 135.017C56.5704 134.648 56.8306 134.332 57.1643 134.11C57.4981 133.888 57.8905 133.77 58.2919 133.77C58.8302 133.77 59.3465 133.982 59.7271 134.361C60.1077 134.74 60.3216 135.254 60.3216 135.79Z" fill="#CED3D6"/>
<path d="M47.3356 134.573C47.3356 134.973 47.2166 135.364 46.9936 135.696C46.7706 136.028 46.4536 136.287 46.0827 136.44C45.7118 136.593 45.3038 136.633 44.9101 136.555C44.5163 136.477 44.1547 136.285 43.8709 136.002C43.587 135.72 43.3937 135.36 43.3154 134.968C43.2371 134.576 43.2773 134.169 43.4309 133.8C43.5845 133.431 43.8447 133.115 44.1784 132.893C44.5122 132.671 44.9046 132.553 45.306 132.553C45.8428 132.557 46.3564 132.772 46.736 133.15C47.1156 133.528 47.3309 134.039 47.3356 134.573Z" fill="#CED3D6"/>
<path d="M34.3497 131.945C34.3533 132.346 34.2373 132.738 34.0164 133.073C33.7956 133.407 33.4798 133.669 33.1093 133.825C32.7388 133.98 32.3301 134.023 31.9353 133.947C31.5404 133.871 31.1771 133.68 30.8914 133.398C30.6058 133.116 30.4107 132.756 30.3309 132.364C30.2511 131.971 30.2902 131.564 30.4433 131.194C30.5964 130.824 30.8565 130.507 31.1907 130.284C31.5248 130.061 31.9179 129.942 32.3201 129.942C32.8553 129.942 33.3688 130.153 33.7489 130.528C34.129 130.903 34.345 131.412 34.3497 131.945Z" fill="#CED3D6"/>
<path d="M49.758 47.6835C54.9865 33.7905 62.5346 20.8766 72.0837 9.48678C70.1798 7.28725 68.4915 5.46325 67.0366 4.12207C60.7502 10.2736 48.8599 24.0967 39.6279 47.7371C42.5702 48.8182 45.5679 49.7434 48.6085 50.5089C49.0754 49.5075 49.3987 48.5776 49.758 47.6835Z" fill="#A1A7AA"/>
<path d="M37.0773 126.598C36.402 104.195 39.238 81.8241 45.4831 60.2905C42.2621 59.6229 39.1249 58.848 36.0715 57.9658C30.3957 75.9376 26.4982 98.5945 27.0011 126.598C30.0724 127.492 33.503 128.387 37.1851 128.995C37.1132 128.19 37.0773 127.385 37.0773 126.598Z" fill="#C1C4C4"/>
<path d="M43.2737 182.659C40.3408 167.783 38.4147 152.728 37.5082 137.595C33.7902 136.898 30.3237 136.111 27.2524 135.217C28.0858 151.151 30.0605 167.005 33.1616 182.659C33.2991 183.355 33.6752 183.981 34.2257 184.431C34.7762 184.882 35.4667 185.127 36.1791 185.126H46.2912C45.5788 185.127 44.8883 184.882 44.3379 184.431C43.7874 183.981 43.4112 183.355 43.2737 182.659Z" fill="#C1C4C4"/>
<path d="M94.3482 47.6834C94.6715 48.4881 94.9769 49.3107 95.2822 50.1333C97.9405 49.418 100.509 48.6133 102.988 47.6834C89.8579 14.0288 71.2681 0.223633 71.2681 0.223633C69.7544 1.4172 68.3149 2.70112 66.9575 4.06834C73.2259 10.2199 85.1342 24.0608 94.3482 47.6834Z" fill="#DCE1E3"/>
<path d="M106.615 57.9834C103.993 58.7523 101.227 59.414 98.5869 60.0041C104.869 81.6284 107.718 104.098 107.029 126.598V128.708C110.154 128.082 113.064 127.367 115.722 126.598C116.189 98.5942 112.291 75.9552 106.615 57.9834Z" fill="#E2E5E6"/>
<path d="M100.814 182.66C100.681 183.354 100.308 183.98 99.7606 184.431C99.2131 184.881 98.5251 185.128 97.8149 185.127H106.472C107.184 185.125 107.872 184.878 108.422 184.428C108.972 183.979 109.349 183.354 109.49 182.66C112.6 167.006 114.592 151.152 115.453 135.218C112.777 135.987 109.831 136.684 106.688 137.31C105.761 152.541 103.799 167.693 100.814 182.66Z" fill="#E2E5E6"/>
<defs>
<linearGradient id="paint0_linear_333_5208" x1="16.8503" y1="4.90614" x2="122.371" y2="219.063" gradientUnits="userSpaceOnUse">
<stop stop-color="#A1A7AA"/>
<stop offset="0.205" stop-color="#CACACA"/>
<stop offset="0.34" stop-color="white"/>
<stop offset="0.47" stop-color="#D3D5D7"/>
<stop offset="1" stop-color="#959596"/>
</linearGradient>
</defs>
</svg>
