<svg width="28" height="26" viewBox="0 0 28 26" fill="none" xmlns="http://www.w3.org/2000/svg">
<path d="M27.3333 10.4663C27.4666 9.79959 26.9333 8.99959 26.2666 8.99959L18.6666 7.93293L15.2 0.999592C15.0666 0.732926 14.9333 0.599592 14.6666 0.466259C14 0.0662589 13.2 0.332926 12.8 0.999592L9.46663 7.93293L1.86663 8.99959C1.46663 8.99959 1.19996 9.13293 1.06663 9.39959C0.533293 9.93293 0.533293 10.7329 1.06663 11.2663L6.53329 16.5996L5.19996 24.1996C5.19996 24.4663 5.19996 24.7329 5.33329 24.9996C5.73329 25.6663 6.53329 25.9329 7.19996 25.5329L14 21.9329L20.8 25.5329C20.9333 25.6663 21.2 25.6663 21.4666 25.6663C21.6 25.6663 21.6 25.6663 21.7333 25.6663C22.4 25.5329 22.9333 24.8663 22.8 24.0663L21.4666 16.4663L26.9333 11.1329C27.2 10.9996 27.3333 10.7329 27.3333 10.4663Z" fill="white"/>
</svg>
