<svg width="28" height="28" viewBox="0 0 28 28" fill="none" xmlns="http://www.w3.org/2000/svg">
<rect width="28" height="28" rx="14" fill="#FE3745"/>
<path d="M14.0002 8.16634C13.6907 8.16634 13.394 8.28926 13.1752 8.50805C12.9564 8.72684 12.8335 9.02359 12.8335 9.33301V13.9997C12.8335 14.3091 12.9564 14.6058 13.1752 14.8246C13.394 15.0434 13.6907 15.1663 14.0002 15.1663C14.3096 15.1663 14.6063 15.0434 14.8251 14.8246C15.0439 14.6058 15.1668 14.3091 15.1668 13.9997V9.33301C15.1668 9.02359 15.0439 8.72684 14.8251 8.50805C14.6063 8.28926 14.3096 8.16634 14.0002 8.16634ZM15.0735 18.223C15.048 18.1487 15.0127 18.078 14.9685 18.013L14.8285 17.838C14.6644 17.6761 14.4561 17.5665 14.2298 17.5229C14.0035 17.4793 13.7693 17.5037 13.5568 17.593C13.4155 17.6521 13.2852 17.735 13.1718 17.838C13.0637 17.947 12.9782 18.0763 12.9201 18.2184C12.862 18.3606 12.8326 18.5128 12.8335 18.6663C12.8353 18.8188 12.8671 18.9694 12.9268 19.1097C12.9792 19.2545 13.0628 19.3859 13.1717 19.4948C13.2806 19.6037 13.4121 19.6873 13.5568 19.7397C13.6965 19.8014 13.8475 19.8333 14.0002 19.8333C14.1529 19.8333 14.3039 19.8014 14.4435 19.7397C14.5883 19.6873 14.7198 19.6037 14.8286 19.4948C14.9375 19.3859 15.0211 19.2545 15.0735 19.1097C15.1333 18.9694 15.165 18.8188 15.1668 18.6663C15.1726 18.5887 15.1726 18.5107 15.1668 18.433C15.1467 18.3586 15.1153 18.2878 15.0735 18.223V18.223ZM14.0002 2.33301C11.6927 2.33301 9.43709 3.01725 7.51852 4.2992C5.59994 5.58115 4.1046 7.40323 3.22157 9.53503C2.33855 11.6668 2.10751 14.0126 2.55767 16.2757C3.00783 18.5388 4.11898 20.6176 5.75059 22.2493C7.3822 23.8809 9.461 24.992 11.7241 25.4422C13.9872 25.8923 16.333 25.6613 18.4648 24.7783C20.5966 23.8952 22.4187 22.3999 23.7006 20.4813C24.9826 18.5628 25.6668 16.3071 25.6668 13.9997C25.6668 12.4676 25.3651 10.9505 24.7788 9.53503C24.1925 8.11957 23.3331 6.83345 22.2497 5.7501C21.1664 4.66675 19.8803 3.80738 18.4648 3.22108C17.0493 2.63478 15.5323 2.33301 14.0002 2.33301V2.33301ZM14.0002 23.333C12.1542 23.333 10.3497 22.7856 8.81485 21.7601C7.27999 20.7345 6.08371 19.2768 5.37729 17.5714C4.67087 15.8659 4.48604 13.9893 4.84617 12.1788C5.2063 10.3683 6.09521 8.7053 7.4005 7.40001C8.70579 6.09472 10.3688 5.20581 12.1793 4.84568C13.9898 4.48555 15.8664 4.67038 17.5719 5.3768C19.2773 6.08322 20.735 7.27949 21.7605 8.81435C22.7861 10.3492 23.3335 12.1537 23.3335 13.9997C23.3335 16.475 22.3502 18.849 20.5998 20.5993C18.8495 22.3497 16.4755 23.333 14.0002 23.333V23.333Z" fill="white"/>
</svg>
