<svg width="33" height="32" viewBox="0 0 33 32" fill="none" xmlns="http://www.w3.org/2000/svg">
<g clip-path="url(#clip0_333_2625)">
<path d="M16.5 32C25.3366 32 32.5 24.8366 32.5 16C32.5 7.16343 25.3366 0 16.5 0C7.66343 0 0.5 7.16343 0.5 16C0.5 24.8366 7.66343 32 16.5 32Z" fill="#0098EA"/>
<path d="M21.9629 8.92969H11.0363C9.02724 8.92969 7.75386 11.0968 8.76461 12.8488L15.5082 24.5372C15.9482 25.3004 17.051 25.3004 17.4911 24.5372L24.236 12.8488C25.2454 11.0996 23.972 8.92969 21.9643 8.92969H21.9629ZM15.5027 21.032L14.034 18.1897L10.4904 11.8518C10.2566 11.4461 10.5453 10.9263 11.0349 10.9263H15.5013V21.0334L15.5027 21.032ZM22.5061 11.8504L18.9638 18.1911L17.4952 21.032V10.9249H21.9616C22.4511 10.9249 22.7399 11.4448 22.5061 11.8504Z" fill="white"/>
</g>
<defs>
<clipPath id="clip0_333_2625">
<rect width="32" height="32" fill="white" transform="translate(0.5)"/>
</clipPath>
</defs>
</svg>
