<svg width="14" height="22" viewBox="0 0 14 22" fill="none" xmlns="http://www.w3.org/2000/svg">
<g clip-path="url(#clip0_333_2095)">
<path d="M7.12533 21.696C7.12533 21.696 9.24022 19.627 9.11805 18.1029C8.99588 16.5788 7.34252 16.1743 7.34252 16.1743L7.22578 16.1426L7.10904 16.1727C7.10904 16.1727 5.43124 16.5587 5.2602 18.0812C5.08916 19.6036 7.12533 21.696 7.12533 21.696Z" fill="#F4D970"/>
<path d="M7.16062 19.4548C7.16062 19.4548 8.64837 18.3585 8.55878 17.5497C8.53376 17.3208 8.39998 17.1015 8.17407 16.919C7.94817 16.7366 7.64011 16.5991 7.28822 16.5235L7.20677 16.5068L7.12532 16.5235C6.77146 16.5951 6.45954 16.7291 6.22834 16.9088C5.99714 17.0886 5.85685 17.3062 5.82489 17.5346C5.71358 18.3418 7.16062 19.4548 7.16062 19.4548Z" fill="#D89C42"/>
<path d="M3.05684 11.0146C3.05684 10.5854 3.07295 10.1574 3.10306 9.73242C1.83672 10.4455 0.964294 12.0342 0.964294 13.8734C0.964294 14.8448 1.20582 15.7712 1.66272 16.5524C1.69103 16.6008 1.73587 16.6374 1.789 16.6554C1.84213 16.6734 1.89997 16.6716 1.95188 16.6504C2.55237 16.4049 3.19406 16.2788 3.85949 16.2736C3.33406 14.6563 3.05684 12.8501 3.05684 11.0146Z" fill="#FE3745"/>
<path d="M1.56104 13.8734C1.56104 12.3543 2.15657 11.0067 3.07727 10.1816C3.08432 10.0316 3.09248 9.88179 3.10306 9.73242C1.83673 10.4455 0.964294 12.0342 0.964294 13.8734C0.964294 14.8448 1.20582 15.7712 1.66272 16.5524C1.69103 16.6008 1.73587 16.6374 1.789 16.6554C1.84213 16.6734 1.89997 16.6716 1.95189 16.6504C2.05087 16.6104 2.15111 16.5735 2.25247 16.54C1.8002 15.7613 1.56104 14.8397 1.56104 13.8734Z" fill="#B7092B"/>
<path d="M11.1045 9.73242C11.135 10.1592 11.1504 10.5868 11.1507 11.0146C11.1507 12.8501 10.8735 14.6562 10.348 16.2736C11.0135 16.2788 11.6551 16.4049 12.2556 16.6504C12.3075 16.6716 12.3654 16.6734 12.4185 16.6554C12.4716 16.6374 12.5165 16.6008 12.5448 16.5524C13.0017 15.7712 13.2432 14.8448 13.2432 13.8734C13.2433 12.0342 12.3708 10.4455 11.1045 9.73242ZM5.08838 16.8783V18.0917C5.08838 18.2364 5.2068 18.3548 5.35154 18.3548H8.85595C9.00069 18.3548 9.11911 18.2364 9.11911 18.0917V16.8783H5.08838Z" fill="#FE3745"/>
<path d="M5.98349 18.0923V16.8789H5.08838V18.0923C5.08838 18.237 5.2068 18.3554 5.35154 18.3554H6.24666C6.10192 18.3554 5.98349 18.237 5.98349 18.0923Z" fill="#B7092B"/>
<path d="M10.3066 5.46777H3.90078C3.31372 7.16006 3.00409 9.06482 3.00409 11.0152C3.00409 13.0427 3.34036 15.0356 3.97647 16.7784C3.99285 16.8232 4.02262 16.862 4.06176 16.8894C4.1009 16.9167 4.1475 16.9314 4.19526 16.9314H10.0121C10.0599 16.9314 10.1065 16.9168 10.1456 16.8894C10.1848 16.862 10.2145 16.8232 10.2309 16.7784C10.867 15.0356 11.2033 13.0427 11.2033 11.0152C11.2033 9.06482 10.8937 7.16011 10.3066 5.46777Z" fill="#EEF6FF"/>
<path d="M4.72237 16.7784C4.08621 15.0356 3.74999 13.0427 3.74999 11.0152C3.74999 9.06482 4.05963 7.16006 4.64669 5.46777H3.90078C3.31372 7.16006 3.00409 9.06482 3.00409 11.0152C3.00409 13.0427 3.34036 15.0356 3.97647 16.7784C3.99285 16.8232 4.02262 16.862 4.06176 16.8894C4.1009 16.9167 4.1475 16.9314 4.19526 16.9314H4.94116C4.8934 16.9314 4.8468 16.9167 4.80766 16.8894C4.76853 16.862 4.73875 16.8232 4.72237 16.7784Z" fill="#D9EAFC"/>
<path d="M5.58722 5.46777V6.34115C5.58722 6.48589 5.70564 6.60431 5.85038 6.60431H8.35788C8.50262 6.60431 8.62104 6.48589 8.62104 6.34115V5.46777H5.58722Z" fill="#EA2A3D"/>
<path d="M6.18396 6.34115V5.46777H5.58722V6.34115C5.58722 6.48589 5.70564 6.60431 5.85038 6.60431H6.44712C6.30239 6.60431 6.18396 6.48589 6.18396 6.34115Z" fill="#B7092B"/>
<path d="M7.10376 0.713867C7.0504 0.713841 6.99864 0.732163 6.95718 0.765763C5.78149 1.71783 4.79116 3.16205 4.09341 4.94234C4.01898 5.1334 3.94868 5.32604 3.88257 5.52013H10.3249C10.2588 5.32604 10.1885 5.1334 10.1141 4.94234C9.41632 3.16205 8.42604 1.71783 7.25029 0.765763C7.20885 0.732156 7.15712 0.713831 7.10376 0.713867Z" fill="#FE3745"/>
<path d="M7.47672 0.957449C7.4026 0.891991 7.32712 0.828082 7.25034 0.765763C7.20761 0.731183 7.15571 0.713867 7.10376 0.713867C7.05182 0.713867 6.99992 0.731183 6.95718 0.765763C5.78148 1.71783 4.79116 3.16205 4.09341 4.94234C4.01898 5.1334 3.94868 5.32604 3.88257 5.52013H4.62847C4.69458 5.32604 4.76488 5.1334 4.83932 4.94234C5.49185 3.27753 6.40018 1.90688 7.47672 0.957449Z" fill="#B7092B"/>
<path d="M7.10412 12.9223C8.58717 12.9223 9.78941 11.7201 9.78941 10.2371C9.78941 8.754 8.58717 7.55176 7.10412 7.55176C5.62107 7.55176 4.41882 8.754 4.41882 10.2371C4.41882 11.7201 5.62107 12.9223 7.10412 12.9223Z" fill="#445EA0"/>
<path d="M7.10405 11.9591C8.05548 11.9591 8.82676 11.1878 8.82676 10.2364C8.82676 9.28495 8.05548 8.51367 7.10405 8.51367C6.15263 8.51367 5.38135 9.28495 5.38135 10.2364C5.38135 11.1878 6.15263 11.9591 7.10405 11.9591Z" fill="#69CDFF"/>
<path d="M6.01288 10.2364C6.01288 11.0799 6.61926 11.7814 7.41985 11.9298C7.31742 11.9487 7.212 11.9591 7.10405 11.9591C6.15257 11.9591 5.38135 11.1878 5.38135 10.2364C5.38135 9.28494 6.15262 8.51367 7.10405 8.51367C7.21195 8.51367 7.31742 8.52409 7.41985 8.54304C6.61926 8.69141 6.01288 9.39284 6.01288 10.2364Z" fill="#52BBEF"/>
</g>
<defs>
<clipPath id="clip0_333_2095">
<rect width="13" height="22" fill="white" transform="translate(0.25)"/>
</clipPath>
</defs>
</svg>
