<svg width="14" height="12" viewBox="0 0 14 12" fill="none" xmlns="http://www.w3.org/2000/svg">
<path d="M11.6667 2.66667H11V2C11 1.46957 10.7893 0.960859 10.4142 0.585787C10.0392 0.210714 9.53044 0 9.00001 0H2.33334C1.80291 0 1.2942 0.210714 0.91913 0.585787C0.544057 0.960859 0.333344 1.46957 0.333344 2V2V10C0.333344 10.5304 0.544057 11.0391 0.91913 11.4142C1.2942 11.7893 1.80291 12 2.33334 12H11.6667C12.1971 12 12.7058 11.7893 13.0809 11.4142C13.456 11.0391 13.6667 10.5304 13.6667 10V4.66667C13.6667 4.13623 13.456 3.62753 13.0809 3.25245C12.7058 2.87738 12.1971 2.66667 11.6667 2.66667ZM2.33334 1.33333H9.00001C9.17682 1.33333 9.34639 1.40357 9.47141 1.5286C9.59644 1.65362 9.66668 1.82319 9.66668 2V2.66667H2.33334C2.15653 2.66667 1.98696 2.59643 1.86194 2.4714C1.73691 2.34638 1.66668 2.17681 1.66668 2C1.66668 1.82319 1.73691 1.65362 1.86194 1.5286C1.98696 1.40357 2.15653 1.33333 2.33334 1.33333V1.33333ZM12.3333 8H11.6667C11.4899 8 11.3203 7.92976 11.1953 7.80474C11.0702 7.67971 11 7.51014 11 7.33333C11 7.15652 11.0702 6.98695 11.1953 6.86193C11.3203 6.7369 11.4899 6.66667 11.6667 6.66667H12.3333V8ZM12.3333 5.33333H11.6667C11.1362 5.33333 10.6275 5.54405 10.2525 5.91912C9.87739 6.29419 9.66668 6.8029 9.66668 7.33333C9.66668 7.86377 9.87739 8.37247 10.2525 8.74755C10.6275 9.12262 11.1362 9.33333 11.6667 9.33333H12.3333V10C12.3333 10.1768 12.2631 10.3464 12.1381 10.4714C12.0131 10.5964 11.8435 10.6667 11.6667 10.6667H2.33334C2.15653 10.6667 1.98696 10.5964 1.86194 10.4714C1.73691 10.3464 1.66668 10.1768 1.66668 10V3.88667C1.88086 3.96201 2.1063 4.00034 2.33334 4H11.6667C11.8435 4 12.0131 4.07024 12.1381 4.19526C12.2631 4.32029 12.3333 4.48986 12.3333 4.66667V5.33333Z" fill="#3F2AA9"/>
</svg>
