<svg width="281" height="280" viewBox="0 0 281 280" fill="none" xmlns="http://www.w3.org/2000/svg">
<path d="M221.741 27.5749C197.999 10.3129 169.402 1.01015 140.048 1.00001C110.694 0.989865 82.0906 10.2728 58.3368 27.5184L140 140L221.741 27.5749Z" fill="url(#paint0_linear_333_2690)"/>
<path d="M272.182 182.999C281.263 155.085 281.273 125.013 272.212 97.0923C263.151 69.172 245.483 44.8369 221.741 27.5749L140 140L272.182 182.999Z" fill="url(#paint1_linear_333_2690)"/>
<path d="M139.952 279C169.306 279.01 197.91 269.727 221.663 252.482C245.417 235.236 263.102 210.913 272.182 182.999L140 140L139.952 279Z" fill="url(#paint2_linear_333_2690)"/>
<path d="M7.78842 182.908C16.8496 210.828 34.5172 235.163 58.2591 252.425C82.0009 269.687 110.598 278.99 139.952 279L140 140L7.78842 182.908Z" fill="url(#paint3_linear_333_2690)"/>
<path d="M58.3368 27.5184C34.5831 44.764 16.8986 69.0868 7.81813 97.0009C-1.26239 124.915 -1.27278 154.987 7.78842 182.908L140 140L58.3368 27.5184Z" fill="url(#paint4_linear_333_2690)"/>
<path fill-rule="evenodd" clip-rule="evenodd" d="M58.2296 26.7235C57.7473 27.0738 57.2675 27.4269 56.7902 27.783C33.6003 45.0816 16.3261 69.1512 7.36717 96.6915C-1.59175 124.232 -1.78489 153.858 6.78917 181.489C6.96804 182.066 7.15074 182.641 7.33725 183.216C7.52376 183.791 7.71389 184.364 7.90761 184.936C17.1935 212.336 34.747 236.203 58.171 253.234C81.5949 270.265 109.711 279.603 138.64 279.987C139.231 279.995 139.823 279.999 140.415 280C140.427 280 140.439 280 140.452 280C140.464 280 140.476 280 140.488 280C141.08 280 141.672 279.996 142.263 279.989C171.192 279.625 199.315 270.305 222.751 253.291C246.186 236.276 263.756 212.421 273.061 185.027C273.248 184.477 273.432 183.924 273.613 183.371C273.619 183.35 273.626 183.329 273.633 183.308C273.64 183.288 273.646 183.267 273.653 183.246C273.833 182.692 274.009 182.138 274.182 181.582C282.775 153.956 282.603 124.33 273.663 96.7836C264.723 69.237 247.465 45.1555 224.287 27.8409C223.804 27.4797 223.318 27.1214 222.829 26.7661C222.34 26.4107 221.85 26.0588 221.357 25.7102C197.739 9.00081 169.509 0.00999911 140.548 9.75656e-06C111.588 -0.00999993 83.3518 8.96129 59.7222 25.6543C59.2359 25.9979 58.7516 26.3447 58.2692 26.6947C58.2626 26.6995 58.2559 26.7044 58.2493 26.7092C58.2427 26.7139 58.2362 26.7187 58.2296 26.7235ZM58.919 30.7152C36.3482 47.5641 19.5349 70.9996 10.8127 97.8123C2.09046 124.625 1.89769 153.467 10.2358 180.371L137.569 139.046L58.919 30.7152ZM143.432 139.048L222.157 30.7716C244.716 47.6362 261.513 71.0833 270.216 97.902C278.92 124.721 279.093 153.563 270.736 180.461L143.432 139.048ZM269.616 183.906L142.311 142.494L142.264 276.365C170.428 276.001 197.805 266.924 220.622 250.359C243.439 233.794 260.548 210.573 269.616 183.906ZM138.641 276.364L138.688 142.493L11.3542 183.817C20.4037 210.49 37.4966 233.722 60.3017 250.303C83.1067 266.884 110.478 275.98 138.641 276.364ZM219.226 28.6409C196.227 12.3814 168.743 3.63298 140.547 3.62323C112.351 3.61351 84.8613 12.3429 61.851 28.5866L140.501 136.918L219.226 28.6409Z" fill="white"/>
<path d="M72.1758 97.2382L64.6575 94.7954L65.6992 91.5893C66.0003 90.6626 66.4145 89.9873 66.9419 89.5633C67.4693 89.1394 68.0576 89.033 68.707 89.244C69.1149 89.3765 69.405 89.6385 69.5772 90.03C69.7494 90.4215 69.7954 90.9018 69.7151 91.4709C69.894 91.0312 70.1214 90.6812 70.3972 90.4209C70.6708 90.1562 70.9701 89.9847 71.295 89.9063C71.6209 89.8246 71.9487 89.8373 72.2783 89.9444C72.7058 90.0833 73.0358 90.3168 73.2683 90.6448C73.5019 90.9697 73.6292 91.3772 73.6503 91.8675C73.6724 92.3545 73.5817 92.9113 73.3781 93.5378L72.1758 97.2382ZM71.2458 94.7877L71.8167 93.0305C71.9111 92.74 71.9162 92.491 71.8322 92.2833C71.746 92.0713 71.5821 91.9261 71.3406 91.8476C71.073 91.7607 70.8355 91.7755 70.6281 91.8921C70.4217 92.0054 70.2713 92.2073 70.177 92.4977L69.606 94.2549L71.2458 94.7877ZM68.3823 93.8573L68.807 92.5504C68.8748 92.3416 68.9032 92.1542 68.8922 91.9882C68.879 91.818 68.828 91.6751 68.7392 91.5597C68.6515 91.441 68.5294 91.3563 68.3727 91.3054C68.141 91.2301 67.9297 91.2642 67.7388 91.4078C67.5478 91.5514 67.3998 91.7847 67.2949 92.1078L66.8845 93.3706L68.3823 93.8573Z" fill="white"/>
<path d="M70.6798 102.342C70.4327 103.103 70.0575 103.708 69.5542 104.157C69.0487 104.603 68.4568 104.881 67.7784 104.993C67.0968 105.103 66.3709 105.033 65.6008 104.783C64.8241 104.531 64.1942 104.16 63.7109 103.671C63.2243 103.181 62.9091 102.608 62.7652 101.951C62.6192 101.291 62.6697 100.58 62.9167 99.8198C63.1637 99.0595 63.54 98.4566 64.0455 98.0112C64.5488 97.5614 65.1413 97.2813 65.8229 97.1709C66.5013 97.0594 67.2288 97.1299 68.0055 97.3822C68.7756 97.6324 69.4039 98.0025 69.8905 98.4925C70.3738 98.9815 70.6884 99.5563 70.8345 100.217C70.9784 100.874 70.9268 101.582 70.6798 102.342ZM69.0677 101.808C69.1801 101.462 69.176 101.141 69.0555 100.846C68.9317 100.549 68.7176 100.287 68.4131 100.058C68.1097 99.826 67.7394 99.6389 67.3021 99.4968C66.8649 99.3548 66.4553 99.2884 66.0734 99.2979C65.6926 99.304 65.3651 99.3906 65.0907 99.5576C64.8164 99.7246 64.6231 99.981 64.5107 100.327C64.3972 100.676 64.4013 101.002 64.523 101.305C64.6457 101.605 64.8587 101.87 65.1621 102.103C65.4666 102.331 65.8375 102.517 66.2747 102.659C66.712 102.801 67.121 102.869 67.5018 102.863C67.8837 102.853 68.2123 102.763 68.4877 102.593C68.7609 102.419 68.9542 102.157 69.0677 101.808Z" fill="white"/>
<path d="M66.9056 113.458L59.3873 111.015L60.0648 108.93L62.9821 109.878L63.1729 109.291L60.9204 106.297L61.7156 103.849L64.5818 107.719L69.2435 106.263L68.4388 108.74L65.1684 109.728L64.9155 110.506L67.5831 111.373L66.9056 113.458Z" fill="white"/>
<path d="M62.0642 118.999L58.1762 114.743L58.8442 112.687L66.3625 115.13L65.7168 117.117L60.9346 115.563L64.8405 119.814L64.1677 121.884L56.6494 119.442L57.2967 117.449L62.0642 118.999Z" fill="white"/>
<path d="M61.3173 130.657L59.6597 130.129L59.7408 129.88C59.7981 129.703 59.805 129.538 59.7615 129.383C59.7158 129.224 59.6088 129.07 59.4406 128.922C59.2724 128.773 59.0347 128.622 58.7276 128.468C58.4171 128.313 58.0264 128.15 57.5553 127.979L54.2666 126.775L56.1242 121.058L63.6425 123.501L62.9968 125.488L57.1182 123.578L56.5155 125.433L58.7729 126.297C59.3932 126.531 59.9099 126.783 60.3232 127.055C60.7376 127.323 61.055 127.612 61.2754 127.922C61.4926 128.23 61.6204 128.559 61.6589 128.907C61.6973 129.255 61.6513 129.629 61.5209 130.031L61.3173 130.657Z" fill="white"/>
<path d="M58.8363 138.293L51.318 135.85L51.9955 133.765L54.9128 134.713L55.1036 134.125L52.8511 131.132L53.6463 128.684L56.5126 132.554L61.1742 131.098L60.3695 133.574L57.0991 134.563L56.8462 135.341L59.5138 136.208L58.8363 138.293Z" fill="white"/>
<path d="M49.6158 108.046L32.073 102.346L33.2781 98.6367L41.0131 101.15L41.0882 100.919L35.4045 92.0924L36.849 87.6468L42.5886 96.709L54.4168 93.2697L52.9751 97.7068L44.2013 100.169L45.8356 102.717L50.8209 104.337L49.6158 108.046Z" fill="white"/>
<path d="M46.8526 117.366C46.4592 118.577 45.8858 119.584 45.1324 120.387C44.3808 121.184 43.5238 121.733 42.5615 122.033C41.5992 122.332 40.6089 122.33 39.5908 122.024L40.7597 118.426C41.4522 118.607 42.0961 118.501 42.6912 118.107C43.2864 117.713 43.7027 117.151 43.9402 116.42C44.1294 115.837 44.1679 115.282 44.0557 114.753C43.9396 114.216 43.6911 113.747 43.3102 113.346C42.9254 112.937 42.4304 112.634 41.825 112.437C41.2083 112.237 40.6231 112.192 40.0695 112.302C39.5178 112.407 39.0363 112.645 38.6252 113.017C38.2141 113.388 37.9101 113.867 37.7133 114.453C37.5463 114.967 37.4896 115.501 37.5431 116.055C37.5986 116.604 37.7654 117.071 38.0437 117.459L36.3811 120.564L27.4 116.728L30.8846 106.003L33.9169 106.989L31.4259 114.655L35.6727 116.537L35.7061 116.434C35.3723 115.985 35.1637 115.402 35.0804 114.687C34.9972 113.972 35.0808 113.229 35.3312 112.458C35.6745 111.401 36.2291 110.54 36.9949 109.873C37.7608 109.207 38.6556 108.774 39.6795 108.577C40.6977 108.377 41.7683 108.463 42.8914 108.834C44.0753 109.213 45.037 109.828 45.7764 110.681C46.512 111.526 46.982 112.528 47.1863 113.687C47.3869 114.838 47.2756 116.064 46.8526 117.366Z" fill="white"/>
<path d="M168.357 214.013L173.004 220.409L170.277 222.39C169.488 222.963 168.756 223.266 168.08 223.299C167.404 223.332 166.866 223.072 166.465 222.52C166.213 222.173 166.132 221.79 166.223 221.372C166.313 220.954 166.558 220.539 166.958 220.126C166.555 220.376 166.165 220.526 165.789 220.574C165.412 220.627 165.069 220.59 164.76 220.463C164.448 220.337 164.191 220.134 163.987 219.854C163.723 219.49 163.593 219.107 163.598 218.705C163.6 218.305 163.736 217.901 164.007 217.492C164.276 217.085 164.676 216.688 165.209 216.3L168.357 214.013ZM167.669 216.543L166.174 217.629C165.927 217.808 165.777 218.007 165.723 218.224C165.668 218.446 165.715 218.66 165.864 218.865C166.03 219.093 166.231 219.221 166.467 219.248C166.7 219.278 166.941 219.203 167.188 219.023L168.683 217.937L167.669 216.543ZM169.439 218.978L168.327 219.786C168.15 219.915 168.016 220.05 167.928 220.191C167.838 220.336 167.796 220.482 167.8 220.627C167.801 220.775 167.85 220.915 167.947 221.049C168.09 221.246 168.281 221.342 168.52 221.338C168.759 221.334 169.016 221.233 169.29 221.033L170.365 220.252L169.439 218.978Z" fill="white"/>
<path d="M172.568 210.764C173.214 210.294 173.873 210.025 174.545 209.957C175.216 209.893 175.858 210.016 176.473 210.325C177.089 210.636 177.635 211.119 178.111 211.774C178.591 212.435 178.883 213.105 178.987 213.785C179.092 214.467 179.01 215.116 178.741 215.732C178.471 216.352 178.012 216.897 177.365 217.367C176.719 217.837 176.06 218.104 175.389 218.167C174.718 218.235 174.074 218.113 173.457 217.802C172.843 217.493 172.296 217.009 171.816 216.348C171.34 215.693 171.049 215.024 170.943 214.342C170.84 213.662 170.923 213.012 171.193 212.392C171.463 211.776 171.921 211.233 172.568 210.764ZM173.558 212.144C173.263 212.357 173.078 212.619 173.002 212.929C172.928 213.241 172.947 213.58 173.059 213.944C173.168 214.31 173.357 214.679 173.628 215.051C173.898 215.423 174.19 215.717 174.505 215.934C174.816 216.153 175.132 216.275 175.452 216.301C175.772 216.328 176.08 216.234 176.374 216.02C176.671 215.804 176.859 215.538 176.939 215.222C177.016 214.907 177 214.567 176.891 214.201C176.779 213.837 176.588 213.469 176.317 213.097C176.047 212.725 175.756 212.429 175.444 212.21C175.13 211.993 174.811 211.873 174.488 211.849C174.165 211.83 173.855 211.928 173.558 212.144Z" fill="white"/>
<path d="M182.155 203.989L186.801 210.384L185.028 211.673L183.225 209.191L182.725 209.555L182.787 213.301L180.706 214.813L180.661 209.998L176.034 208.436L178.141 206.905L181.368 208.028L182.03 207.547L180.381 205.278L182.155 203.989Z" fill="white"/>
<path d="M189.328 202.352L189.972 208.081L188.223 209.351L183.577 202.956L185.267 201.728L188.223 205.796L187.561 200.061L189.323 198.781L193.969 205.177L192.274 206.408L189.328 202.352Z" fill="white"/>
<path d="M196.785 193.359L197.816 194.761L197.603 194.915C197.454 195.024 197.351 195.154 197.295 195.305C197.238 195.46 197.234 195.647 197.283 195.866C197.332 196.085 197.436 196.347 197.594 196.653C197.754 196.96 197.974 197.322 198.254 197.737L200.207 200.644L195.344 204.178L190.698 197.782L192.388 196.554L196.021 201.555L197.599 200.408L196.28 198.383C195.916 197.829 195.647 197.321 195.472 196.858C195.294 196.398 195.207 195.977 195.211 195.597C195.217 195.22 195.306 194.879 195.48 194.575C195.653 194.271 195.911 193.995 196.252 193.747L196.785 193.359Z" fill="white"/>
<path d="M203.28 188.64L207.927 195.036L206.153 196.324L204.35 193.843L203.851 194.206L203.913 197.952L201.831 199.464L201.787 194.649L197.16 193.087L199.267 191.556L202.493 192.679L203.155 192.198L201.507 189.929L203.28 188.64Z" fill="white"/>
<path d="M187.491 222.505L198.333 237.428L195.178 239.72L190.397 233.14L190.201 233.283L189.611 243.764L185.829 246.512L186.512 235.807L174.922 231.637L178.696 228.895L187.241 232.06L187.417 229.038L184.336 224.797L187.491 222.505Z" fill="white"/>
<path d="M195.616 216.101C196.872 215.195 198.175 214.72 199.523 214.676C200.866 214.635 202.203 215.018 203.532 215.826C204.856 216.638 206.109 217.862 207.29 219.497C208.472 221.125 209.24 222.686 209.592 224.182C209.939 225.681 209.88 227.056 209.416 228.307C208.95 229.566 208.092 230.648 206.844 231.556C205.596 232.463 204.303 232.941 202.967 232.992C201.626 233.046 200.296 232.676 198.977 231.883C197.662 231.094 196.416 229.884 195.238 228.254C194.049 226.617 193.275 225.041 192.918 223.527C192.555 222.017 192.601 220.629 193.055 219.364C193.509 218.099 194.362 217.011 195.616 216.101ZM197.516 218.717C196.661 219.338 196.291 220.264 196.406 221.494C196.52 222.724 197.205 224.198 198.459 225.914C199.281 227.046 200.083 227.903 200.863 228.487C201.638 229.074 202.375 229.403 203.073 229.475C203.766 229.551 204.396 229.382 204.965 228.969C205.815 228.351 206.186 227.432 206.078 226.211C205.971 224.991 205.304 223.531 204.077 221.832C203.244 220.686 202.434 219.812 201.649 219.21C200.861 218.617 200.117 218.282 199.415 218.205C198.718 218.133 198.084 218.304 197.516 218.717Z" fill="white"/>
<path d="M216.094 224.524L205.252 209.601L208.407 207.309L217.073 219.237L217.16 219.173L219.021 214.548L221.054 217.346L219.059 222.369L216.094 224.524Z" fill="white"/>
<path d="M158.278 63.0063V55.1011H161.649C162.623 55.1011 163.393 55.2864 163.96 55.6569C164.526 56.0275 164.809 56.5541 164.809 57.2369C164.809 57.6658 164.649 58.0226 164.33 58.3074C164.011 58.5922 163.568 58.7844 163.002 58.8839C163.476 58.9182 163.879 59.0262 164.212 59.2081C164.548 59.3865 164.804 59.6181 164.979 59.9029C165.157 60.1877 165.246 60.5033 165.246 60.8499C165.246 61.2993 165.126 61.6853 164.886 62.0079C164.649 62.3304 164.301 62.5774 163.841 62.749C163.385 62.9205 162.827 63.0063 162.168 63.0063H158.278ZM160.321 61.3645H162.168C162.474 61.3645 162.712 61.2925 162.884 61.1484C163.059 61.0008 163.146 60.8001 163.146 60.5462C163.146 60.2649 163.059 60.0436 162.884 59.8823C162.712 59.721 162.474 59.6404 162.168 59.6404H160.321V61.3645ZM160.321 58.3537H161.695C161.915 58.3537 162.102 58.3229 162.256 58.2611C162.414 58.1959 162.534 58.1033 162.616 57.9832C162.702 57.8631 162.745 57.7207 162.745 57.556C162.745 57.3124 162.647 57.122 162.452 56.9847C162.256 56.8475 161.988 56.7789 161.649 56.7789H160.321V58.3537Z" fill="white"/>
<path d="M152.961 63.1607C152.162 63.1607 151.47 62.9909 150.887 62.6512C150.307 62.3081 149.859 61.8312 149.544 61.2204C149.228 60.6063 149.07 59.8943 149.07 59.0846C149.07 58.268 149.228 57.5543 149.544 56.9436C149.859 56.3294 150.307 55.8525 150.887 55.5128C151.47 55.1697 152.162 54.9981 152.961 54.9981C153.761 54.9981 154.45 55.1697 155.03 55.5128C155.613 55.8525 156.063 56.3294 156.379 56.9436C156.694 57.5543 156.852 58.268 156.852 59.0846C156.852 59.8943 156.694 60.6063 156.379 61.2204C156.063 61.8312 155.613 62.3081 155.03 62.6512C154.45 62.9909 153.761 63.1607 152.961 63.1607ZM152.971 61.4623C153.335 61.4623 153.639 61.3594 153.882 61.1535C154.126 60.9442 154.31 60.6594 154.433 60.2992C154.56 59.9389 154.624 59.5289 154.624 59.0691C154.624 58.6094 154.56 58.1993 154.433 57.8391C154.31 57.4788 154.126 57.194 153.882 56.9847C153.639 56.7754 153.335 56.6708 152.971 56.6708C152.604 56.6708 152.296 56.7754 152.045 56.9847C151.798 57.194 151.611 57.4788 151.484 57.8391C151.361 58.1993 151.299 58.6094 151.299 59.0691C151.299 59.5289 151.361 59.9389 151.484 60.2992C151.611 60.6594 151.798 60.9442 152.045 61.1535C152.296 61.3594 152.604 61.4623 152.971 61.4623Z" fill="white"/>
<path d="M141.223 63.0063V55.1011H143.415V58.1685H144.033L146.184 55.1011H148.758L145.963 59.0228L148.789 63.0063H146.184L144.234 60.2014H143.415V63.0063H141.223Z" fill="white"/>
<path d="M134.458 60.1139L137.304 55.1011H139.465V63.0063H137.376V57.978L134.54 63.0063H132.363V55.1011H134.458V60.1139Z" fill="white"/>
<path d="M123.139 63.0063L123.129 61.2667H123.391C123.576 61.2667 123.736 61.2221 123.87 61.1329C124.007 61.0403 124.12 60.891 124.209 60.6852C124.299 60.4793 124.369 60.2065 124.42 59.8668C124.472 59.5237 124.506 59.1017 124.523 58.6008L124.652 55.1011H130.663V63.0063H128.574V56.8252H126.623L126.5 59.239C126.469 59.9012 126.388 60.4707 126.258 60.9476C126.131 61.4246 125.954 61.8157 125.728 62.1211C125.501 62.423 125.228 62.646 124.909 62.7901C124.59 62.9342 124.22 63.0063 123.798 63.0063H123.139Z" fill="white"/>
<path d="M115.11 63.0063V55.1011H117.303V58.1685H117.92L120.072 55.1011H122.645L119.85 59.0228L122.676 63.0063H120.072L118.121 60.2014H117.303V63.0063H115.11Z" fill="white"/>
<path d="M156.52 44.8901V26.4446L160.42 26.4446V34.5775H160.663L167.301 26.4446L171.976 26.4446L165.131 34.7036L172.057 44.8901H167.391L162.339 37.3066L160.42 39.6483V44.8901H156.52Z" fill="white"/>
<path d="M146.183 45.2954C144.634 45.2894 143.301 44.9081 142.184 44.1516C141.073 43.395 140.217 42.2992 139.617 40.8642C139.023 39.4291 138.728 37.7028 138.734 35.6854C138.734 33.6739 139.032 31.9596 139.626 30.5426C140.226 29.1255 141.082 28.0478 142.193 27.3092C143.31 26.5647 144.64 26.1924 146.183 26.1924C147.726 26.1924 149.053 26.5647 150.164 27.3092C151.281 28.0538 152.139 29.1346 152.74 30.5516C153.34 31.9626 153.637 33.6739 153.631 35.6854C153.631 37.7089 153.331 39.4381 152.731 40.8732C152.136 42.3082 151.284 43.404 150.173 44.1606C149.062 44.9171 147.732 45.2954 146.183 45.2954ZM146.183 42.0621C147.24 42.0621 148.083 41.5307 148.714 40.4679C149.344 39.4051 149.656 37.8109 149.65 35.6854C149.65 34.2863 149.506 33.1215 149.218 32.1908C148.936 31.2601 148.534 30.5606 148.011 30.0923C147.495 29.6239 146.885 29.3897 146.183 29.3897C145.132 29.3897 144.291 29.9151 143.661 30.9659C143.031 32.0167 142.712 33.5898 142.706 35.6854C142.706 37.1024 142.847 38.2853 143.13 39.234C143.418 40.1767 143.823 40.8852 144.346 41.3595C144.868 41.8279 145.48 42.0621 146.183 42.0621Z" fill="white"/>
<path d="M128.721 45.2954C127.172 45.2894 125.839 44.9081 124.722 44.1516C123.612 43.395 122.756 42.2992 122.155 40.8642C121.561 39.4291 121.267 37.7028 121.273 35.6854C121.273 33.6739 121.57 31.9596 122.164 30.5426C122.765 29.1255 123.621 28.0477 124.731 27.3092C125.848 26.5647 127.178 26.1924 128.721 26.1924C130.264 26.1924 131.591 26.5647 132.702 27.3092C133.819 28.0538 134.678 29.1345 135.278 30.5516C135.879 31.9626 136.176 33.6739 136.17 35.6854C136.17 37.7088 135.87 39.4381 135.269 40.8732C134.675 42.3082 133.822 43.404 132.711 44.1606C131.6 44.9171 130.27 45.2954 128.721 45.2954ZM128.721 42.062C129.778 42.062 130.622 41.5307 131.252 40.4679C131.883 39.4051 132.195 37.8109 132.189 35.6854C132.189 34.2863 132.045 33.1215 131.757 32.1908C131.474 31.2601 131.072 30.5606 130.55 30.0922C130.033 29.6239 129.424 29.3897 128.721 29.3897C127.671 29.3897 126.83 29.9151 126.199 30.9659C125.569 32.0167 125.251 33.5898 125.245 35.6854C125.245 37.1024 125.386 38.2853 125.668 39.234C125.956 40.1767 126.362 40.8852 126.884 41.3595C127.406 41.8279 128.019 42.062 128.721 42.062Z" fill="white"/>
<path d="M117.105 26.4446V44.8901H113.205V30.1463H113.097L108.873 32.7942V29.3357L113.439 26.4446L117.105 26.4446Z" fill="white"/>
<path d="M74.5717 201.215L80.7671 192.688L82.3244 193.819L82.1349 201.881L82.1973 201.927L86.0967 196.56L87.8996 197.87L81.7042 206.397L80.1219 205.247L80.3376 197.21L80.2626 197.156L76.3663 202.519L74.5717 201.215Z" fill="#69CDFF"/>
<path d="M86.1374 203.103C86.813 202.174 87.564 201.511 88.3905 201.114C89.2142 200.716 90.0536 200.565 90.9088 200.66C91.7592 200.756 92.5606 201.078 93.3128 201.624C94.0706 202.175 94.6256 202.841 94.9779 203.623C95.3302 204.405 95.4442 205.249 95.3201 206.155C95.1959 207.062 94.797 207.979 94.1234 208.906C93.4478 209.836 92.6981 210.5 91.8744 210.898C91.0508 211.296 90.2137 211.447 89.3633 211.351C88.5109 211.257 87.7058 210.935 86.948 210.385C86.1957 209.838 85.6435 209.174 85.2912 208.392C84.9341 207.611 84.8177 206.767 84.9419 205.861C85.0633 204.953 85.4618 204.033 86.1374 203.103ZM87.9653 204.432C87.5276 205.034 87.2488 205.607 87.1287 206.152C87.0059 206.695 87.0292 207.191 87.1987 207.641C87.3681 208.09 87.6708 208.473 88.1066 208.79C88.5424 209.107 89.0003 209.276 89.4804 209.298C89.9604 209.321 90.4409 209.19 90.9219 208.908C91.4 208.623 91.8579 208.18 92.2955 207.578C92.7332 206.975 93.0134 206.403 93.1362 205.86C93.2563 205.315 93.2316 204.818 93.0621 204.369C92.8926 203.919 92.59 203.536 92.1542 203.219C91.7184 202.902 91.2605 202.733 90.7804 202.711C90.3003 202.689 89.8212 202.82 89.3431 203.104C88.8622 203.387 88.4029 203.829 87.9653 204.432Z" fill="#69CDFF"/>
<path d="M99.7232 217.217L98.6432 218.704L91.6398 213.616L92.7198 212.129L95.3304 214.026L100.446 206.985L102.228 208.28L97.1125 215.321L99.7232 217.217Z" fill="#69CDFF"/>
<path d="M59.5773 222.485L70.4193 207.562L73.5744 209.854L64.9081 221.782L64.9956 221.846L69.9694 222.187L67.9365 224.985L62.5429 224.64L59.5773 222.485Z" fill="#69CDFF"/>
<path d="M79.4538 213.837C79.9347 214.186 80.2241 214.656 80.3219 215.247C80.4114 215.839 80.2814 216.375 79.932 216.856C79.5861 217.332 79.1196 217.617 78.5325 217.71C77.9406 217.799 77.4042 217.669 76.9233 217.32C76.4569 216.981 76.1724 216.514 76.0697 215.92C75.967 215.326 76.0886 214.791 76.4345 214.315C76.6674 213.994 76.9635 213.76 77.3228 213.613C77.6737 213.467 78.0385 213.41 78.4173 213.44C78.7925 213.475 79.138 213.607 79.4538 213.837Z" fill="#69CDFF"/>
<path d="M89.0724 220.613C90.3221 221.529 91.1764 222.621 91.6352 223.889C92.0892 225.154 92.1373 226.544 91.7796 228.058C91.417 229.568 90.6403 231.138 89.4496 232.766C88.2673 234.394 87.0193 235.606 85.7054 236.403C84.3867 237.196 83.061 237.565 81.7282 237.51C80.3871 237.456 79.0923 236.975 77.8439 236.068C76.5954 235.161 75.7407 234.08 75.2797 232.825C74.8138 231.566 74.7544 230.187 75.1016 228.687C75.4452 227.193 76.2106 225.634 77.3978 224.01C78.5871 222.373 79.8465 221.15 81.1757 220.342C82.5001 219.531 83.834 219.145 85.1774 219.186C86.5208 219.227 87.8191 219.703 89.0724 220.613ZM87.1718 223.229C86.3169 222.608 85.322 222.542 84.1873 223.031C83.0525 223.521 81.8629 224.627 80.6184 226.35C79.7961 227.482 79.228 228.509 78.9141 229.431C78.5954 230.35 78.5097 231.152 78.657 231.838C78.7995 232.521 79.1549 233.068 79.7232 233.481C80.5733 234.099 81.5622 234.168 82.6899 233.689C83.8176 233.209 84.9997 232.123 86.2363 230.432C87.0692 229.285 87.6503 228.245 87.9796 227.312C88.3006 226.38 88.3891 225.568 88.2453 224.878C88.098 224.192 87.7402 223.642 87.1718 223.229Z" fill="#69CDFF"/>
<path d="M227.534 128.485L217.509 131.742L216.915 129.911L221.807 123.5L221.783 123.426L215.474 125.476L214.785 123.357L224.809 120.1L225.414 121.96L220.515 128.335L220.544 128.423L226.848 126.375L227.534 128.485Z" fill="#FFD00D"/>
<path d="M219.287 120.158C218.194 120.514 217.197 120.609 216.295 120.443C215.395 120.281 214.627 119.91 213.991 119.331C213.359 118.753 212.9 118.022 212.613 117.138C212.323 116.247 212.266 115.381 212.44 114.542C212.615 113.702 213.019 112.952 213.652 112.292C214.285 111.632 215.147 111.124 216.237 110.77C217.33 110.415 218.327 110.319 219.227 110.481C220.128 110.643 220.893 111.012 221.525 111.59C222.16 112.167 222.622 112.9 222.911 113.791C223.198 114.676 223.255 115.538 223.08 116.377C222.91 117.219 222.508 117.97 221.875 118.63C221.243 119.294 220.38 119.803 219.287 120.158ZM218.589 118.01C219.297 117.78 219.86 117.48 220.277 117.109C220.695 116.743 220.968 116.327 221.095 115.864C221.223 115.401 221.203 114.913 221.036 114.4C220.87 113.888 220.599 113.482 220.224 113.182C219.848 112.882 219.383 112.704 218.828 112.65C218.274 112.599 217.643 112.689 216.935 112.919C216.227 113.149 215.664 113.448 215.245 113.814C214.828 114.185 214.556 114.601 214.428 115.065C214.301 115.528 214.321 116.016 214.487 116.528C214.654 117.041 214.925 117.447 215.3 117.747C215.675 118.047 216.14 118.223 216.694 118.274C217.249 118.328 217.881 118.24 218.589 118.01Z" fill="#FFD00D"/>
<path d="M216.592 100.755L218.339 100.187L221.014 108.42L219.267 108.988L218.27 105.919L209.993 108.608L209.312 106.513L217.589 103.824L216.592 100.755Z" fill="#FFD00D"/>
<path d="M232.287 119.909C231.814 118.433 231.765 117.048 232.139 115.752C232.515 114.462 233.293 113.309 234.472 112.295C235.653 111.286 237.204 110.473 239.125 109.855C241.038 109.233 242.76 108.986 244.291 109.114C245.825 109.247 247.114 109.728 248.16 110.556C249.213 111.388 249.978 112.538 250.455 114.006C250.932 115.473 250.988 116.85 250.623 118.137C250.26 119.429 249.497 120.58 248.335 121.588C247.179 122.596 245.643 123.407 243.728 124.023C241.804 124.648 240.066 124.897 238.516 124.769C236.968 124.648 235.662 124.175 234.599 123.353C233.536 122.53 232.766 121.382 232.287 119.909ZM235.362 118.91C235.689 119.915 236.455 120.553 237.66 120.824C238.866 121.095 240.478 120.899 242.498 120.237C243.829 119.805 244.892 119.307 245.688 118.746C246.486 118.19 247.027 117.591 247.311 116.949C247.597 116.314 247.631 115.662 247.414 114.994C247.089 113.994 246.33 113.357 245.136 113.082C243.942 112.807 242.347 112.991 240.352 113.633C239.005 114.07 237.923 114.57 237.108 115.132C236.301 115.697 235.752 116.302 235.462 116.945C235.178 117.587 235.145 118.241 235.362 118.91Z" fill="#FFD00D"/>
<path d="M225.501 97.7115L228.173 96.8431L235.984 101.209C236.671 101.573 237.278 101.868 237.806 102.094C238.336 102.326 238.828 102.472 239.284 102.533C239.745 102.591 240.206 102.545 240.669 102.395C241.183 102.228 241.587 101.967 241.883 101.613C242.183 101.256 242.368 100.843 242.436 100.372C242.51 99.8999 242.463 99.4068 242.296 98.8928C242.122 98.356 241.861 97.923 241.514 97.5938C241.167 97.2646 240.756 97.0573 240.28 96.9721C239.804 96.8868 239.286 96.9351 238.727 97.1169L237.583 93.5964C238.731 93.2234 239.812 93.1595 240.826 93.4045C241.84 93.6496 242.73 94.1652 243.497 94.9515C244.264 95.7377 244.846 96.7418 245.243 97.9639C245.651 99.2202 245.784 100.386 245.641 101.462C245.505 102.541 245.131 103.468 244.517 104.242C243.904 105.015 243.092 105.567 242.081 105.895C241.418 106.11 240.722 106.191 239.991 106.138C239.262 106.091 238.396 105.864 237.393 105.458C236.395 105.05 235.153 104.421 233.665 103.572L230.323 101.827L230.203 101.866L232.596 109.232L229.564 110.218L225.501 97.7115Z" fill="#FFD00D"/>
<defs>
<linearGradient id="paint0_linear_333_2690" x1="140" y1="306.444" x2="140" y2="20.1097" gradientUnits="userSpaceOnUse">
<stop stop-color="#1A0B4E"/>
<stop offset="1" stop-color="#4630BA"/>
</linearGradient>
<linearGradient id="paint1_linear_333_2690" x1="140" y1="306.444" x2="140" y2="20.1097" gradientUnits="userSpaceOnUse">
<stop stop-color="#1A0B4E"/>
<stop offset="1" stop-color="#4630BA"/>
</linearGradient>
<linearGradient id="paint2_linear_333_2690" x1="140" y1="306.444" x2="140" y2="20.1097" gradientUnits="userSpaceOnUse">
<stop stop-color="#1A0B4E"/>
<stop offset="1" stop-color="#4630BA"/>
</linearGradient>
<linearGradient id="paint3_linear_333_2690" x1="140" y1="306.444" x2="140" y2="20.1097" gradientUnits="userSpaceOnUse">
<stop stop-color="#1A0B4E"/>
<stop offset="1" stop-color="#4630BA"/>
</linearGradient>
<linearGradient id="paint4_linear_333_2690" x1="140" y1="306.444" x2="140" y2="20.1097" gradientUnits="userSpaceOnUse">
<stop stop-color="#1A0B4E"/>
<stop offset="1" stop-color="#4630BA"/>
</linearGradient>
</defs>
</svg>
