<svg width="78" height="100" viewBox="0 0 78 100" fill="none" xmlns="http://www.w3.org/2000/svg">
<path d="M77.8998 58.9498C77.8998 80.4611 60.4614 97.8995 38.95 97.8995C17.4386 97.8995 0.000244141 80.4611 0.000244141 58.9498C0.000244141 37.4384 17.4386 20 38.95 20C60.4614 20 77.8998 37.4384 77.8998 58.9498Z" fill="white"/>
<g filter="url(#filter0_d_475_1660)">
<path d="M38.7233 91.9831C38.7233 91.9831 47.9824 82.9251 47.4475 76.2523C46.9127 69.5796 39.6741 67.8089 39.6741 67.8089L39.163 67.6699L38.6519 67.8016C38.6519 67.8016 31.3064 69.4918 30.5576 76.1572C29.8088 82.8227 38.7233 91.9831 38.7233 91.9831Z" fill="#F4D970"/>
<path d="M38.8776 82.1712C38.8776 82.1712 45.3911 77.3715 44.9988 73.8302C44.8893 72.8282 44.3036 71.868 43.3146 71.0693C42.3255 70.2705 40.9768 69.6684 39.4362 69.3378L39.0796 69.2646L38.723 69.3378C37.1738 69.651 35.8082 70.2376 34.796 71.0246C33.7838 71.8116 33.1696 72.7643 33.0297 73.7644C32.5423 77.2983 38.8776 82.1712 38.8776 82.1712Z" fill="#D89C42"/>
<path d="M20.9116 45.2211C20.9116 43.342 20.9821 41.4679 21.1139 39.6074C15.5698 42.7295 11.7502 49.6847 11.7502 57.737C11.7502 61.9898 12.8077 66.0455 14.808 69.4658C14.932 69.6778 15.1283 69.8379 15.3609 69.9168C15.5935 69.9956 15.8467 69.9878 16.074 69.8948C18.7029 68.8201 21.5123 68.268 24.4256 68.245C22.1252 61.1644 20.9116 53.257 20.9116 45.2211Z" fill="#FE3745"/>
<path d="M14.3628 57.737C14.3628 51.0862 16.9701 45.1863 21.001 41.5741C21.0319 40.9172 21.0676 40.2614 21.1139 39.6074C15.5698 42.7295 11.7502 49.6847 11.7502 57.737C11.7502 61.9898 12.8077 66.0455 14.808 69.4658C14.932 69.6778 15.1283 69.8379 15.3609 69.9168C15.5935 69.9956 15.8467 69.9878 16.074 69.8948C16.5073 69.7196 16.9462 69.5584 17.39 69.4114C15.4099 66.0024 14.3628 61.9674 14.3628 57.737Z" fill="#B7092B"/>
<path d="M56.1447 39.6074C56.2783 41.4757 56.3457 43.3481 56.347 45.2211C56.347 53.2568 55.1334 61.1642 52.8328 68.245C55.7463 68.268 58.5554 68.8201 61.1844 69.8948C61.4117 69.9878 61.6649 69.9955 61.8975 69.9167C62.1301 69.8379 62.3264 69.6778 62.4503 69.4658C64.4509 66.0455 65.5081 61.9898 65.5081 57.737C65.5084 49.6847 61.6888 42.7295 56.1447 39.6074ZM29.8057 70.8926V76.2049C29.8057 76.8385 30.3241 77.357 30.9578 77.357H46.3004C46.934 77.357 47.4525 76.8385 47.4525 76.2049V70.8926H29.8057Z" fill="#FE3745"/>
<path d="M33.7245 76.2049V70.8926H29.8057V76.2049C29.8057 76.8385 30.3241 77.357 30.9578 77.357H34.8767C34.243 77.357 33.7245 76.8385 33.7245 76.2049Z" fill="#B7092B"/>
<path d="M52.6521 20.9336H24.6069C22.0368 28.3425 20.6812 36.6817 20.6812 45.2204C20.6812 54.097 22.1534 62.8221 24.9383 70.4523C25.01 70.6487 25.1404 70.8183 25.3117 70.9382C25.4831 71.058 25.6871 71.1223 25.8962 71.1223H51.3628C51.5719 71.1224 51.776 71.0581 51.9473 70.9382C52.1187 70.8183 52.249 70.6487 52.3207 70.4523C55.1057 62.8221 56.5779 54.097 56.5779 45.2204C56.5781 36.6817 55.2225 28.3428 52.6521 20.9336Z" fill="#EEF6FF"/>
<path d="M28.2039 70.4523C25.4187 62.8221 23.9468 54.097 23.9468 45.2204C23.9468 36.6817 25.3024 28.3425 27.8726 20.9336H24.6069C22.0368 28.3425 20.6812 36.6817 20.6812 45.2204C20.6812 54.097 22.1534 62.8221 24.9383 70.4523C25.01 70.6487 25.1404 70.8183 25.3117 70.9382C25.4831 71.058 25.6871 71.1223 25.8962 71.1223H29.1618C28.9527 71.1223 28.7487 71.058 28.5773 70.9382C28.406 70.8183 28.2756 70.6487 28.2039 70.4523Z" fill="#D9EAFC"/>
<path d="M31.9895 20.9336V24.7573C31.9895 25.391 32.508 25.9094 33.1416 25.9094H44.1197C44.7534 25.9094 45.2718 25.391 45.2718 24.7573V20.9336H31.9895Z" fill="#EA2A3D"/>
<path d="M34.6021 24.7573V20.9336H31.9895V24.7573C31.9895 25.391 32.508 25.9094 33.1416 25.9094H35.7542C35.1206 25.9094 34.6021 25.391 34.6021 24.7573Z" fill="#B7092B"/>
<path d="M38.6302 0.122071C38.3966 0.121955 38.17 0.202172 37.9885 0.349272C32.8412 4.51748 28.5055 10.8404 25.4507 18.6346C25.1248 19.4711 24.817 20.3145 24.5276 21.1643H52.7326C52.4432 20.3145 52.1354 19.4711 51.8095 18.6346C48.7548 10.8404 44.4193 4.51748 39.2717 0.349272C39.0903 0.202139 38.8638 0.121914 38.6302 0.122071Z" fill="#FE3745"/>
<path d="M40.263 1.18849C39.9385 0.901909 39.6081 0.62211 39.272 0.349272C39.0849 0.197881 38.8577 0.12207 38.6302 0.12207C38.4028 0.12207 38.1756 0.197881 37.9885 0.349272C32.8412 4.51748 28.5055 10.8404 25.4507 18.6346C25.1248 19.4711 24.817 20.3145 24.5276 21.1643H27.7932C28.0827 20.3145 28.3904 19.4711 28.7163 18.6346C31.5731 11.346 35.5499 5.34517 40.263 1.18849Z" fill="#B7092B"/>
<path d="M38.6314 53.5695C45.1243 53.5695 50.3878 48.3059 50.3878 41.8131C50.3878 35.3202 45.1243 30.0566 38.6314 30.0566C32.1385 30.0566 26.875 35.3202 26.875 41.8131C26.875 48.3059 32.1385 53.5695 38.6314 53.5695Z" fill="#445EA0"/>
<path d="M38.6303 49.3548C42.7957 49.3548 46.1724 45.978 46.1724 41.8126C46.1724 37.6472 42.7957 34.2705 38.6303 34.2705C34.4649 34.2705 31.0881 37.6472 31.0881 41.8126C31.0881 45.978 34.4649 49.3548 38.6303 49.3548Z" fill="#69CDFF"/>
<path d="M33.853 41.8136C33.853 45.5067 36.5078 48.5778 40.0128 49.2274C39.5644 49.3103 39.1029 49.356 38.6303 49.356C34.4646 49.356 31.0881 45.9791 31.0881 41.8136C31.0881 37.6482 34.4648 34.2715 38.6303 34.2715C39.1026 34.2715 39.5644 34.3171 40.0128 34.4001C36.5078 35.0496 33.853 38.1205 33.853 41.8136Z" fill="#52BBEF"/>
</g>
<defs>
<filter id="filter0_d_475_1660" x="7.75024" y="0.12207" width="61.7578" height="99.8613" filterUnits="userSpaceOnUse" color-interpolation-filters="sRGB">
<feFlood flood-opacity="0" result="BackgroundImageFix"/>
<feColorMatrix in="SourceAlpha" type="matrix" values="0 0 0 0 0 0 0 0 0 0 0 0 0 0 0 0 0 0 127 0" result="hardAlpha"/>
<feOffset dy="4"/>
<feGaussianBlur stdDeviation="2"/>
<feComposite in2="hardAlpha" operator="out"/>
<feColorMatrix type="matrix" values="0 0 0 0 0 0 0 0 0 0 0 0 0 0 0 0 0 0 0.25 0"/>
<feBlend mode="normal" in2="BackgroundImageFix" result="effect1_dropShadow_475_1660"/>
<feBlend mode="normal" in="SourceGraphic" in2="effect1_dropShadow_475_1660" result="shape"/>
</filter>
</defs>
</svg>
