<svg width="281" height="281" viewBox="0 0 281 281" fill="none" xmlns="http://www.w3.org/2000/svg">
<path d="M221.741 28.2751C197.999 11.0131 169.402 1.71035 140.048 1.7002C110.694 1.69006 82.0906 10.973 58.3368 28.2186L140 140.7L221.741 28.2751Z" fill="url(#paint0_linear_333_3669)"/>
<path d="M272.182 183.699C281.263 155.785 281.273 125.713 272.212 97.7925C263.151 69.8722 245.483 45.5371 221.741 28.2751L140 140.7L272.182 183.699Z" fill="url(#paint1_linear_333_3669)"/>
<path d="M139.952 279.7C169.306 279.71 197.91 270.427 221.663 253.182C245.417 235.936 263.102 211.613 272.182 183.699L140 140.7L139.952 279.7Z" fill="url(#paint2_linear_333_3669)"/>
<path d="M7.78842 183.608C16.8496 211.528 34.5172 235.863 58.2591 253.125C82.0009 270.387 110.598 279.69 139.952 279.7L140 140.7L7.78842 183.608Z" fill="url(#paint3_linear_333_3669)"/>
<path d="M58.3368 28.2186C34.5831 45.4642 16.8986 69.787 7.81813 97.7011C-1.26239 125.615 -1.27278 155.687 7.78842 183.608L140 140.7L58.3368 28.2186Z" fill="url(#paint4_linear_333_3669)"/>
<path fill-rule="evenodd" clip-rule="evenodd" d="M58.2296 27.4237C57.7473 27.774 57.2675 28.1271 56.7902 28.4832C33.6003 45.7818 16.3261 69.8514 7.36717 97.3917C-1.59175 124.932 -1.78489 154.558 6.78917 182.19C6.96804 182.766 7.15074 183.342 7.33725 183.916C7.52376 184.491 7.71389 185.064 7.90761 185.636C17.1935 213.036 34.747 236.903 58.171 253.934C81.5949 270.965 109.711 280.303 138.64 280.688C139.231 280.695 139.823 280.7 140.415 280.7C140.427 280.7 140.439 280.7 140.452 280.7C140.464 280.7 140.476 280.7 140.488 280.7C141.08 280.7 141.672 280.696 142.263 280.689C171.192 280.325 199.315 271.006 222.751 253.991C246.186 236.976 263.756 213.122 273.061 185.728C273.248 185.177 273.432 184.625 273.613 184.071C273.619 184.05 273.626 184.029 273.633 184.008C273.64 183.988 273.646 183.967 273.653 183.947C273.833 183.393 274.009 182.838 274.182 182.282C282.775 154.657 282.603 125.03 273.663 97.4838C264.723 69.9372 247.465 45.8557 224.287 28.5411C223.804 28.1799 223.318 27.8216 222.829 27.4662C222.34 27.1109 221.85 26.759 221.357 26.4104C197.739 9.70101 169.509 0.710194 140.548 0.700205C111.588 0.690195 83.3518 9.66149 59.7222 26.3545C59.2359 26.698 58.7516 27.0448 58.2692 27.3949C58.2626 27.3997 58.2559 27.4045 58.2493 27.4094C58.2427 27.4141 58.2362 27.4189 58.2296 27.4237ZM58.919 31.4154C36.3482 48.2643 19.5349 71.6998 10.8127 98.5125C2.09046 125.325 1.89769 154.167 10.2358 181.071L137.569 139.747L58.919 31.4154ZM143.432 139.749L222.157 31.4718C244.716 48.3364 261.513 71.7835 270.216 98.6022C278.92 125.421 279.093 154.263 270.736 181.161L143.432 139.749ZM269.616 184.607L142.311 143.194L142.264 277.065C170.428 276.701 197.805 267.624 220.622 251.059C243.439 234.494 260.548 211.273 269.616 184.607ZM138.641 277.064L138.688 143.193L11.3542 184.517C20.4037 211.19 37.4966 234.423 60.3017 251.003C83.1067 267.584 110.478 276.68 138.641 277.064ZM219.226 29.3411C196.227 13.0816 168.743 4.33317 140.547 4.32343C112.351 4.3137 84.8613 13.0431 61.851 29.2868L140.501 137.618L219.226 29.3411Z" fill="white"/>
<path d="M72.1758 97.9384L64.6575 95.4956L65.6992 92.2895C66.0003 91.3628 66.4145 90.6875 66.9419 90.2635C67.4693 89.8396 68.0576 89.7332 68.707 89.9442C69.1149 90.0767 69.405 90.3387 69.5772 90.7302C69.7494 91.1217 69.7954 91.602 69.7151 92.1711C69.894 91.7314 70.1214 91.3814 70.3972 91.1211C70.6708 90.8564 70.9701 90.6849 71.295 90.6065C71.6209 90.5248 71.9487 90.5375 72.2783 90.6446C72.7058 90.7835 73.0358 91.017 73.2683 91.345C73.5019 91.6699 73.6292 92.0774 73.6503 92.5677C73.6724 93.0547 73.5817 93.6115 73.3781 94.238L72.1758 97.9384ZM71.2458 95.4879L71.8167 93.7307C71.9111 93.4402 71.9162 93.1912 71.8322 92.9835C71.746 92.7715 71.5821 92.6263 71.3406 92.5478C71.073 92.4608 70.8355 92.4757 70.6281 92.5923C70.4217 92.7056 70.2713 92.9075 70.177 93.1979L69.606 94.9551L71.2458 95.4879ZM68.3823 94.5575L68.807 93.2506C68.8748 93.0418 68.9032 92.8544 68.8922 92.6884C68.879 92.5182 68.828 92.3753 68.7392 92.2599C68.6515 92.1412 68.5294 92.0564 68.3727 92.0056C68.141 91.9303 67.9297 91.9644 67.7388 92.108C67.5478 92.2516 67.3998 92.4849 67.2949 92.808L66.8845 94.0708L68.3823 94.5575Z" fill="white"/>
<path d="M70.6798 103.042C70.4327 103.803 70.0575 104.408 69.5542 104.858C69.0487 105.303 68.4568 105.581 67.7784 105.693C67.0968 105.803 66.3709 105.733 65.6008 105.483C64.8241 105.231 64.1942 104.86 63.7109 104.371C63.2243 103.881 62.9091 103.308 62.7652 102.652C62.6192 101.991 62.6697 101.28 62.9167 100.52C63.1637 99.7597 63.54 99.1568 64.0455 98.7114C64.5488 98.2616 65.1413 97.9815 65.8229 97.8711C66.5013 97.7596 67.2288 97.8301 68.0055 98.0824C68.7756 98.3326 69.4039 98.7027 69.8905 99.1927C70.3738 99.6817 70.6884 100.257 70.8345 100.917C70.9784 101.574 70.9268 102.282 70.6798 103.042ZM69.0677 102.508C69.1801 102.162 69.176 101.841 69.0555 101.546C68.9317 101.25 68.7176 100.987 68.4131 100.758C68.1097 100.526 67.7394 100.339 67.3021 100.197C66.8649 100.055 66.4553 99.9886 66.0734 99.998C65.6926 100.004 65.3651 100.091 65.0907 100.258C64.8164 100.425 64.6231 100.681 64.5107 101.027C64.3972 101.376 64.4013 101.702 64.523 102.005C64.6457 102.305 64.8587 102.571 65.1621 102.803C65.4666 103.032 65.8375 103.217 66.2747 103.359C66.712 103.501 67.121 103.569 67.5018 103.563C67.8837 103.554 68.2123 103.464 68.4877 103.293C68.7609 103.119 68.9542 102.857 69.0677 102.508Z" fill="white"/>
<path d="M66.9056 114.158L59.3873 111.716L60.0648 109.63L62.9821 110.578L63.1729 109.991L60.9204 106.997L61.7156 104.55L64.5818 108.419L69.2435 106.963L68.4388 109.44L65.1684 110.428L64.9155 111.206L67.5831 112.073L66.9056 114.158Z" fill="white"/>
<path d="M62.0642 119.699L58.1762 115.443L58.8442 113.387L66.3625 115.83L65.7168 117.817L60.9346 116.263L64.8405 120.514L64.1677 122.585L56.6494 120.142L57.2967 118.15L62.0642 119.699Z" fill="white"/>
<path d="M61.3173 131.357L59.6597 130.83L59.7408 130.58C59.7981 130.404 59.805 130.238 59.7615 130.083C59.7158 129.924 59.6088 129.77 59.4406 129.622C59.2724 129.473 59.0347 129.322 58.7276 129.168C58.4171 129.013 58.0264 128.85 57.5553 128.679L54.2666 127.475L56.1242 121.758L63.6425 124.201L62.9968 126.188L57.1182 124.278L56.5155 126.133L58.7729 126.997C59.3932 127.231 59.9099 127.484 60.3232 127.755C60.7376 128.023 61.055 128.312 61.2754 128.622C61.4926 128.93 61.6204 129.259 61.6589 129.607C61.6973 129.955 61.6513 130.329 61.5209 130.731L61.3173 131.357Z" fill="white"/>
<path d="M58.8363 138.993L51.318 136.55L51.9955 134.465L54.9128 135.413L55.1036 134.826L52.8511 131.832L53.6463 129.384L56.5126 133.254L61.1742 131.798L60.3695 134.275L57.0991 135.263L56.8462 136.041L59.5138 136.908L58.8363 138.993Z" fill="white"/>
<path d="M49.6158 108.746L32.073 103.046L33.2781 99.3369L41.0131 101.85L41.0882 101.619L35.4045 92.7926L36.849 88.347L42.5886 97.4092L54.4168 93.9699L52.9751 98.407L44.2013 100.869L45.8356 103.417L50.8209 105.037L49.6158 108.746Z" fill="white"/>
<path d="M46.8526 118.066C46.4592 119.277 45.8858 120.284 45.1324 121.087C44.3808 121.885 43.5238 122.433 42.5615 122.733C41.5992 123.033 40.6089 123.03 39.5908 122.724L40.7597 119.127C41.4522 119.307 42.0961 119.201 42.6912 118.807C43.2864 118.413 43.7027 117.851 43.9402 117.12C44.1294 116.538 44.1679 115.982 44.0557 115.453C43.9396 114.916 43.6911 114.447 43.3102 114.046C42.9254 113.637 42.4304 113.334 41.825 113.137C41.2083 112.937 40.6231 112.892 40.0695 113.002C39.5178 113.107 39.0363 113.345 38.6252 113.717C38.2141 114.088 37.9101 114.567 37.7133 115.154C37.5463 115.668 37.4896 116.202 37.5431 116.756C37.5986 117.304 37.7654 117.772 38.0437 118.159L36.3811 121.265L27.4 117.428L30.8846 106.703L33.9169 107.689L31.4259 115.355L35.6727 117.237L35.7061 117.134C35.3723 116.685 35.1637 116.102 35.0804 115.387C34.9972 114.672 35.0808 113.929 35.3312 113.158C35.6745 112.102 36.2291 111.24 36.9949 110.573C37.7608 109.907 38.6556 109.475 39.6795 109.277C40.6977 109.078 41.7683 109.163 42.8914 109.535C44.0753 109.913 45.037 110.528 45.7764 111.381C46.512 112.226 46.982 113.228 47.1863 114.387C47.3869 115.538 47.2756 116.764 46.8526 118.066Z" fill="white"/>
<path d="M168.357 214.714L173.004 221.109L170.277 223.09C169.488 223.663 168.756 223.966 168.08 223.999C167.404 224.032 166.866 223.772 166.465 223.22C166.213 222.873 166.132 222.491 166.223 222.073C166.313 221.655 166.558 221.239 166.958 220.826C166.555 221.076 166.165 221.226 165.789 221.274C165.412 221.328 165.069 221.291 164.76 221.163C164.448 221.037 164.191 220.835 163.987 220.554C163.723 220.191 163.593 219.808 163.598 219.406C163.6 219.006 163.736 218.601 164.007 218.192C164.276 217.785 164.676 217.388 165.209 217.001L168.357 214.714ZM167.669 217.243L166.174 218.329C165.927 218.508 165.777 218.707 165.723 218.924C165.668 219.146 165.715 219.36 165.864 219.566C166.03 219.793 166.231 219.921 166.467 219.948C166.7 219.978 166.941 219.903 167.188 219.724L168.683 218.638L167.669 217.243ZM169.439 219.679L168.327 220.486C168.15 220.615 168.016 220.75 167.928 220.891C167.838 221.036 167.796 221.182 167.8 221.328C167.801 221.475 167.85 221.616 167.947 221.749C168.09 221.946 168.281 222.042 168.52 222.038C168.759 222.035 169.016 221.933 169.29 221.733L170.365 220.953L169.439 219.679Z" fill="white"/>
<path d="M172.568 211.464C173.214 210.994 173.873 210.725 174.545 210.657C175.216 210.594 175.858 210.716 176.473 211.025C177.089 211.336 177.635 211.819 178.111 212.474C178.591 213.135 178.883 213.805 178.987 214.485C179.092 215.167 179.01 215.816 178.741 216.432C178.471 217.052 178.012 217.597 177.365 218.067C176.719 218.537 176.06 218.804 175.389 218.867C174.718 218.935 174.074 218.813 173.457 218.502C172.843 218.194 172.296 217.709 171.816 217.048C171.34 216.393 171.049 215.725 170.943 215.042C170.84 214.362 170.923 213.712 171.193 213.092C171.463 212.476 171.921 211.934 172.568 211.464ZM173.558 212.844C173.263 213.058 173.078 213.319 173.002 213.629C172.928 213.942 172.947 214.28 173.059 214.644C173.168 215.01 173.357 215.379 173.628 215.751C173.898 216.123 174.19 216.417 174.505 216.634C174.816 216.853 175.132 216.976 175.452 217.002C175.772 217.028 176.08 216.934 176.374 216.72C176.671 216.504 176.859 216.238 176.939 215.922C177.016 215.607 177 215.267 176.891 214.901C176.779 214.537 176.588 214.169 176.317 213.797C176.047 213.425 175.756 213.129 175.444 212.911C175.13 212.694 174.811 212.573 174.488 212.549C174.165 212.53 173.855 212.628 173.558 212.844Z" fill="white"/>
<path d="M182.155 204.689L186.801 211.085L185.028 212.373L183.225 209.892L182.725 210.255L182.787 214.001L180.706 215.513L180.661 210.698L176.034 209.136L178.141 207.605L181.368 208.728L182.03 208.247L180.381 205.978L182.155 204.689Z" fill="white"/>
<path d="M189.328 203.053L189.972 208.781L188.223 210.051L183.577 203.656L185.267 202.428L188.223 206.496L187.561 200.761L189.323 199.481L193.969 205.877L192.274 207.108L189.328 203.053Z" fill="white"/>
<path d="M196.785 194.06L197.816 195.461L197.603 195.615C197.454 195.724 197.351 195.854 197.295 196.005C197.238 196.16 197.234 196.348 197.283 196.567C197.332 196.786 197.436 197.048 197.594 197.353C197.754 197.661 197.974 198.022 198.254 198.437L200.207 201.344L195.344 204.878L190.698 198.482L192.388 197.254L196.021 202.255L197.599 201.108L196.28 199.083C195.916 198.529 195.647 198.021 195.472 197.558C195.294 197.098 195.207 196.678 195.211 196.297C195.217 195.92 195.306 195.579 195.48 195.275C195.653 194.971 195.911 194.695 196.252 194.447L196.785 194.06Z" fill="white"/>
<path d="M203.28 189.34L207.927 195.736L206.153 197.025L204.35 194.543L203.851 194.906L203.913 198.652L201.831 200.165L201.787 195.349L197.16 193.787L199.267 192.257L202.493 193.379L203.155 192.898L201.507 190.629L203.28 189.34Z" fill="white"/>
<path d="M187.491 223.205L198.333 238.128L195.178 240.42L190.397 233.84L190.201 233.983L189.611 244.465L185.829 247.212L186.512 236.507L174.922 232.337L178.696 229.595L187.241 232.76L187.417 229.738L184.336 225.497L187.491 223.205Z" fill="white"/>
<path d="M195.616 216.801C196.872 215.895 198.175 215.42 199.523 215.376C200.866 215.335 202.203 215.719 203.532 216.527C204.856 217.338 206.109 218.562 207.29 220.198C208.472 221.825 209.24 223.387 209.592 224.882C209.939 226.382 209.88 227.757 209.416 229.007C208.95 230.266 208.092 231.349 206.844 232.256C205.596 233.163 204.303 233.642 202.967 233.692C201.626 233.746 200.296 233.377 198.977 232.583C197.662 231.794 196.416 230.585 195.238 228.954C194.049 227.317 193.275 225.741 192.918 224.227C192.555 222.717 192.601 221.329 193.055 220.064C193.509 218.799 194.362 217.712 195.616 216.801ZM197.516 219.417C196.661 220.038 196.291 220.964 196.406 222.194C196.52 223.425 197.205 224.898 198.459 226.614C199.281 227.746 200.083 228.603 200.863 229.187C201.638 229.774 202.375 230.103 203.073 230.175C203.766 230.251 204.396 230.082 204.965 229.669C205.815 229.051 206.186 228.132 206.078 226.912C205.971 225.691 205.304 224.231 204.077 222.532C203.244 221.386 202.434 220.512 201.649 219.91C200.861 219.317 200.117 218.982 199.415 218.905C198.718 218.833 198.084 219.004 197.516 219.417Z" fill="white"/>
<path d="M216.094 225.224L205.252 210.301L208.407 208.009L217.073 219.937L217.16 219.873L219.021 215.248L221.054 218.046L219.059 223.069L216.094 225.224Z" fill="white"/>
<path d="M158.278 63.7065V55.8013H161.649C162.623 55.8013 163.393 55.9865 163.96 56.3571C164.526 56.7277 164.809 57.2543 164.809 57.9371C164.809 58.366 164.649 58.7228 164.33 59.0076C164.011 59.2924 163.568 59.4845 163.002 59.584C163.476 59.6184 163.879 59.7264 164.212 59.9083C164.548 60.0867 164.804 60.3183 164.979 60.6031C165.157 60.8879 165.246 61.2035 165.246 61.5501C165.246 61.9995 165.126 62.3855 164.886 62.7081C164.649 63.0306 164.301 63.2776 163.841 63.4492C163.385 63.6207 162.827 63.7065 162.168 63.7065H158.278ZM160.321 62.0647H162.168C162.474 62.0647 162.712 61.9927 162.884 61.8486C163.059 61.701 163.146 61.5003 163.146 61.2464C163.146 60.9651 163.059 60.7438 162.884 60.5825C162.712 60.4212 162.474 60.3406 162.168 60.3406H160.321V62.0647ZM160.321 59.0539H161.695C161.915 59.0539 162.102 59.0231 162.256 58.9613C162.414 58.8961 162.534 58.8035 162.616 58.6834C162.702 58.5633 162.745 58.4209 162.745 58.2562C162.745 58.0126 162.647 57.8222 162.452 57.6849C162.256 57.5477 161.988 57.4791 161.649 57.4791H160.321V59.0539Z" fill="white"/>
<path d="M152.961 63.8609C152.162 63.8609 151.47 63.6911 150.887 63.3514C150.307 63.0083 149.859 62.5313 149.544 61.9206C149.228 61.3064 149.07 60.5945 149.07 59.7848C149.07 58.9682 149.228 58.2545 149.544 57.6438C149.859 57.0296 150.307 56.5527 150.887 56.213C151.47 55.8699 152.162 55.6983 152.961 55.6983C153.761 55.6983 154.45 55.8699 155.03 56.213C155.613 56.5527 156.063 57.0296 156.379 57.6438C156.694 58.2545 156.852 58.9682 156.852 59.7848C156.852 60.5945 156.694 61.3064 156.379 61.9206C156.063 62.5313 155.613 63.0083 155.03 63.3514C154.45 63.6911 153.761 63.8609 152.961 63.8609ZM152.971 62.1625C153.335 62.1625 153.639 62.0596 153.882 61.8537C154.126 61.6444 154.31 61.3596 154.433 60.9994C154.56 60.6391 154.624 60.2291 154.624 59.7693C154.624 59.3096 154.56 58.8995 154.433 58.5393C154.31 58.179 154.126 57.8942 153.882 57.6849C153.639 57.4756 153.335 57.371 152.971 57.371C152.604 57.371 152.296 57.4756 152.045 57.6849C151.798 57.8942 151.611 58.179 151.484 58.5393C151.361 58.8995 151.299 59.3096 151.299 59.7693C151.299 60.2291 151.361 60.6391 151.484 60.9994C151.611 61.3596 151.798 61.6444 152.045 61.8537C152.296 62.0596 152.604 62.1625 152.971 62.1625Z" fill="white"/>
<path d="M141.223 63.7065V55.8013H143.415V58.8687H144.033L146.184 55.8013H148.758L145.963 59.723L148.789 63.7065H146.184L144.234 60.9016H143.415V63.7065H141.223Z" fill="white"/>
<path d="M134.458 60.8141L137.304 55.8013H139.465V63.7065H137.376V58.6782L134.54 63.7065H132.363V55.8013H134.458V60.8141Z" fill="white"/>
<path d="M123.139 63.7065L123.129 61.9669H123.391C123.576 61.9669 123.736 61.9223 123.87 61.8331C124.007 61.7405 124.12 61.5912 124.209 61.3854C124.299 61.1795 124.369 60.9067 124.42 60.567C124.472 60.2239 124.506 59.8019 124.523 59.301L124.652 55.8013H130.663V63.7065H128.574V57.5254H126.623L126.5 59.9392C126.469 60.6014 126.388 61.1709 126.258 61.6478C126.131 62.1248 125.954 62.5159 125.728 62.8213C125.501 63.1232 125.228 63.3462 124.909 63.4903C124.59 63.6344 124.22 63.7065 123.798 63.7065H123.139Z" fill="white"/>
<path d="M115.11 63.7065V55.8013H117.303V58.8687H117.92L120.072 55.8013H122.645L119.85 59.723L122.676 63.7065H120.072L118.121 60.9016H117.303V63.7065H115.11Z" fill="white"/>
<path d="M156.52 45.5903V27.1448L160.42 27.1448V35.2777H160.663L167.301 27.1448L171.976 27.1448L165.131 35.4038L172.057 45.5903H167.391L162.339 38.0068L160.42 40.3485V45.5903H156.52Z" fill="white"/>
<path d="M146.183 45.9956C144.634 45.9896 143.301 45.6083 142.184 44.8518C141.073 44.0952 140.217 42.9994 139.617 41.5644C139.023 40.1293 138.728 38.403 138.734 36.3856C138.734 34.3741 139.032 32.6598 139.626 31.2428C140.226 29.8257 141.082 28.7479 142.193 28.0094C143.31 27.2649 144.64 26.8926 146.183 26.8926C147.726 26.8926 149.053 27.2649 150.164 28.0094C151.281 28.754 152.139 29.8347 152.74 31.2518C153.34 32.6628 153.637 34.3741 153.631 36.3856C153.631 38.409 153.331 40.1383 152.731 41.5734C152.136 43.0084 151.284 44.1042 150.173 44.8608C149.062 45.6173 147.732 45.9956 146.183 45.9956ZM146.183 42.7622C147.24 42.7622 148.083 42.2309 148.714 41.1681C149.344 40.1053 149.656 38.5111 149.65 36.3856C149.65 34.9865 149.506 33.8217 149.218 32.891C148.936 31.9603 148.534 31.2608 148.011 30.7925C147.495 30.3241 146.885 30.0899 146.183 30.0899C145.132 30.0899 144.291 30.6153 143.661 31.6661C143.031 32.7169 142.712 34.29 142.706 36.3856C142.706 37.8026 142.847 38.9855 143.13 39.9342C143.418 40.8769 143.823 41.5854 144.346 42.0597C144.868 42.5281 145.48 42.7622 146.183 42.7622Z" fill="white"/>
<path d="M128.721 45.9956C127.172 45.9896 125.839 45.6083 124.722 44.8518C123.612 44.0952 122.756 42.9994 122.155 41.5644C121.561 40.1293 121.267 38.403 121.273 36.3856C121.273 34.3741 121.57 32.6598 122.164 31.2428C122.765 29.8257 123.621 28.7479 124.731 28.0094C125.848 27.2649 127.178 26.8926 128.721 26.8926C130.264 26.8926 131.591 27.2649 132.702 28.0094C133.819 28.7539 134.678 29.8347 135.278 31.2518C135.879 32.6628 136.176 34.3741 136.17 36.3856C136.17 38.409 135.87 40.1383 135.269 41.5734C134.675 43.0084 133.822 44.1042 132.711 44.8608C131.6 45.6173 130.27 45.9956 128.721 45.9956ZM128.721 42.7622C129.778 42.7622 130.622 42.2308 131.252 41.1681C131.883 40.1053 132.195 38.5111 132.189 36.3856C132.189 34.9865 132.045 33.8217 131.757 32.891C131.474 31.9603 131.072 31.2608 130.55 30.7924C130.033 30.3241 129.424 30.0899 128.721 30.0899C127.671 30.0899 126.83 30.6153 126.199 31.6661C125.569 32.7169 125.251 34.29 125.245 36.3856C125.245 37.8026 125.386 38.9855 125.668 39.9342C125.956 40.8769 126.362 41.5854 126.884 42.0597C127.406 42.5281 128.019 42.7622 128.721 42.7622Z" fill="white"/>
<path d="M117.105 27.1448V45.5903H113.205V30.8465H113.097L108.873 33.4944V30.0359L113.439 27.1448L117.105 27.1448Z" fill="white"/>
<path d="M74.5717 201.916L80.7671 193.389L82.3244 194.52L82.1349 202.582L82.1973 202.628L86.0967 197.261L87.8996 198.571L81.7042 207.098L80.1219 205.948L80.3376 197.911L80.2626 197.857L76.3663 203.22L74.5717 201.916Z" fill="#69CDFF"/>
<path d="M86.1374 203.805C86.813 202.875 87.564 202.212 88.3905 201.816C89.2142 201.417 90.0536 201.266 90.9088 201.361C91.7592 201.458 92.5606 201.779 93.3128 202.326C94.0706 202.876 94.6256 203.542 94.9779 204.324C95.3302 205.106 95.4442 205.95 95.3201 206.857C95.1959 207.763 94.797 208.68 94.1234 209.607C93.4478 210.537 92.6981 211.201 91.8744 211.599C91.0508 211.997 90.2137 212.148 89.3633 212.052C88.5109 211.959 87.7058 211.637 86.948 211.086C86.1957 210.539 85.6435 209.875 85.2912 209.093C84.9341 208.312 84.8177 207.469 84.9419 206.562C85.0633 205.654 85.4618 204.735 86.1374 203.805ZM87.9653 205.133C87.5276 205.735 87.2488 206.309 87.1287 206.853C87.0059 207.396 87.0292 207.892 87.1987 208.342C87.3681 208.791 87.6708 209.175 88.1066 209.491C88.5424 209.808 89.0003 209.977 89.4804 210C89.9604 210.022 90.4409 209.892 90.9219 209.609C91.4 209.325 91.8579 208.881 92.2955 208.279C92.7332 207.676 93.0134 207.104 93.1362 206.561C93.2563 206.017 93.2316 205.519 93.0621 205.07C92.8926 204.62 92.59 204.237 92.1542 203.92C91.7184 203.604 91.2605 203.434 90.7804 203.412C90.3003 203.39 89.8212 203.521 89.3431 203.805C88.8622 204.088 88.4029 204.53 87.9653 205.133Z" fill="#69CDFF"/>
<path d="M99.7232 217.918L98.6432 219.405L91.6398 214.317L92.7198 212.83L95.3304 214.727L100.446 207.686L102.228 208.981L97.1125 216.022L99.7232 217.918Z" fill="#69CDFF"/>
<path d="M59.5773 223.186L70.4193 208.263L73.5744 210.556L64.9081 222.484L64.9956 222.547L69.9694 222.888L67.9365 225.686L62.5429 225.341L59.5773 223.186Z" fill="#69CDFF"/>
<path d="M79.4538 214.538C79.9347 214.887 80.2241 215.357 80.3219 215.948C80.4114 216.54 80.2814 217.076 79.932 217.557C79.5861 218.033 79.1196 218.318 78.5325 218.411C77.9406 218.5 77.4042 218.37 76.9233 218.021C76.4569 217.682 76.1724 217.215 76.0697 216.621C75.967 216.027 76.0886 215.492 76.4345 215.016C76.6674 214.695 76.9635 214.462 77.3228 214.314C77.6737 214.168 78.0385 214.111 78.4173 214.141C78.7925 214.176 79.138 214.308 79.4538 214.538Z" fill="#69CDFF"/>
<path d="M89.0724 221.315C90.3221 222.23 91.1764 223.322 91.6352 224.59C92.0892 225.855 92.1373 227.245 91.7796 228.759C91.417 230.269 90.6403 231.839 89.4496 233.467C88.2673 235.095 87.0193 236.307 85.7054 237.104C84.3867 237.897 83.061 238.266 81.7282 238.211C80.3871 238.157 79.0923 237.676 77.8439 236.769C76.5954 235.862 75.7407 234.781 75.2797 233.526C74.8138 232.267 74.7544 230.888 75.1016 229.389C75.4452 227.894 76.2106 226.335 77.3978 224.711C78.5871 223.074 79.8465 221.852 81.1757 221.044C82.5001 220.232 83.834 219.847 85.1774 219.887C86.5208 219.928 87.8191 220.404 89.0724 221.315ZM87.1718 223.93C86.3169 223.309 85.322 223.243 84.1873 223.733C83.0525 224.222 81.8629 225.328 80.6184 227.051C79.7961 228.183 79.228 229.21 78.9141 230.132C78.5954 231.051 78.5097 231.854 78.657 232.54C78.7995 233.222 79.1549 233.77 79.7232 234.183C80.5733 234.8 81.5622 234.869 82.6899 234.39C83.8176 233.91 84.9997 232.825 86.2363 231.133C87.0692 229.986 87.6503 228.946 87.9796 228.013C88.3006 227.081 88.3891 226.27 88.2453 225.579C88.098 224.893 87.7402 224.343 87.1718 223.93Z" fill="#69CDFF"/>
<path d="M227.534 129.185L217.509 132.442L216.915 130.611L221.807 124.2L221.783 124.127L215.474 126.177L214.785 124.057L224.809 120.8L225.414 122.66L220.515 129.035L220.544 129.124L226.848 127.075L227.534 129.185Z" fill="#FFD00D"/>
<path d="M219.287 120.859C218.194 121.214 217.197 121.309 216.295 121.144C215.395 120.982 214.627 120.611 213.991 120.031C213.359 119.453 212.9 118.722 212.613 117.838C212.323 116.947 212.266 116.082 212.44 115.242C212.615 114.402 213.019 113.653 213.652 112.992C214.285 112.332 215.147 111.825 216.237 111.471C217.33 111.115 218.327 111.019 219.227 111.181C220.128 111.343 220.893 111.713 221.525 112.29C222.16 112.867 222.622 113.601 222.911 114.492C223.198 115.376 223.255 116.238 223.08 117.077C222.91 117.919 222.508 118.67 221.875 119.331C221.243 119.994 220.38 120.503 219.287 120.859ZM218.589 118.71C219.297 118.48 219.86 118.18 220.277 117.81C220.695 117.443 220.968 117.028 221.095 116.564C221.223 116.101 221.203 115.613 221.036 115.101C220.87 114.588 220.599 114.182 220.224 113.882C219.848 113.582 219.383 113.405 218.828 113.351C218.274 113.3 217.643 113.389 216.935 113.619C216.227 113.849 215.664 114.148 215.245 114.515C214.828 114.885 214.556 115.302 214.428 115.765C214.301 116.228 214.321 116.716 214.487 117.229C214.654 117.741 214.925 118.147 215.3 118.447C215.675 118.747 216.14 118.923 216.694 118.974C217.249 119.028 217.881 118.94 218.589 118.71Z" fill="#FFD00D"/>
<path d="M216.592 101.455L218.339 100.887L221.014 109.12L219.267 109.688L218.27 106.619L209.993 109.308L209.312 107.213L217.589 104.524L216.592 101.455Z" fill="#FFD00D"/>
<path d="M232.287 120.609C231.814 119.134 231.765 117.748 232.139 116.452C232.515 115.162 233.293 114.01 234.472 112.995C235.653 111.986 237.204 111.173 239.125 110.555C241.038 109.934 242.76 109.687 244.291 109.814C245.825 109.947 247.114 110.428 248.16 111.256C249.213 112.088 249.978 113.238 250.455 114.706C250.932 116.173 250.988 117.55 250.623 118.837C250.26 120.129 249.497 121.28 248.335 122.289C247.179 123.296 245.643 124.107 243.728 124.723C241.804 125.348 240.066 125.597 238.516 125.47C236.968 125.348 235.662 124.875 234.599 124.053C233.536 123.23 232.766 122.082 232.287 120.609ZM235.362 119.61C235.689 120.615 236.455 121.253 237.66 121.524C238.866 121.795 240.478 121.6 242.498 120.937C243.829 120.505 244.892 120.008 245.688 119.446C246.486 118.89 247.027 118.291 247.311 117.65C247.597 117.014 247.631 116.362 247.414 115.694C247.089 114.694 246.33 114.057 245.136 113.782C243.942 113.507 242.347 113.691 240.352 114.333C239.005 114.771 237.923 115.27 237.108 115.832C236.301 116.397 235.752 117.002 235.462 117.645C235.178 118.287 235.145 118.942 235.362 119.61Z" fill="#FFD00D"/>
<path d="M225.501 98.4117L228.173 97.5433L235.984 101.909C236.671 102.273 237.278 102.568 237.806 102.795C238.336 103.026 238.828 103.173 239.284 103.233C239.745 103.292 240.206 103.246 240.669 103.095C241.183 102.928 241.587 102.668 241.883 102.313C242.183 101.956 242.368 101.543 242.436 101.072C242.51 100.6 242.463 100.107 242.296 99.593C242.122 99.0562 241.861 98.6232 241.514 98.294C241.167 97.9648 240.756 97.7575 240.28 97.6723C239.804 97.587 239.286 97.6353 238.727 97.8171L237.583 94.2966C238.731 93.9236 239.812 93.8597 240.826 94.1047C241.84 94.3498 242.73 94.8654 243.497 95.6517C244.264 96.4379 244.846 97.442 245.243 98.6641C245.651 99.9204 245.784 101.086 245.641 102.162C245.505 103.241 245.131 104.168 244.517 104.942C243.904 105.716 243.092 106.267 242.081 106.595C241.418 106.81 240.722 106.892 239.991 106.839C239.262 106.791 238.396 106.564 237.393 106.158C236.395 105.75 235.153 105.121 233.665 104.273L230.323 102.527L230.203 102.566L232.596 109.933L229.564 110.918L225.501 98.4117Z" fill="#FFD00D"/>
<path d="M179.9 140.65C179.9 162.161 162.461 179.6 140.95 179.6C119.439 179.6 102 162.161 102 140.65C102 119.139 119.439 101.7 140.95 101.7C162.461 101.7 179.9 119.139 179.9 140.65Z" fill="white"/>
<g filter="url(#filter0_d_333_3669)">
<path d="M140.723 173.683C140.723 173.683 149.982 164.625 149.448 157.953C148.913 151.28 141.674 149.509 141.674 149.509L141.163 149.37L140.652 149.502C140.652 149.502 133.306 151.192 132.558 157.857C131.809 164.523 140.723 173.683 140.723 173.683Z" fill="#F4D970"/>
<path d="M140.878 163.871C140.878 163.871 147.391 159.072 146.999 155.53C146.889 154.528 146.304 153.568 145.315 152.769C144.326 151.971 142.977 151.369 141.436 151.038L141.08 150.965L140.723 151.038C139.174 151.351 137.808 151.938 136.796 152.725C135.784 153.512 135.17 154.464 135.03 155.465C134.542 158.999 140.878 163.871 140.878 163.871Z" fill="#D89C42"/>
<path d="M122.912 126.921C122.912 125.042 122.982 123.168 123.114 121.308C117.57 124.43 113.75 131.385 113.75 139.437C113.75 143.69 114.808 147.746 116.808 151.166C116.932 151.378 117.128 151.538 117.361 151.617C117.593 151.696 117.847 151.688 118.074 151.595C120.703 150.52 123.512 149.968 126.426 149.945C124.125 142.865 122.912 134.957 122.912 126.921Z" fill="#FE3745"/>
<path d="M116.363 139.437C116.363 132.786 118.97 126.887 123.001 123.274C123.032 122.617 123.068 121.962 123.114 121.308C117.57 124.43 113.75 131.385 113.75 139.437C113.75 143.69 114.808 147.746 116.808 151.166C116.932 151.378 117.128 151.538 117.361 151.617C117.593 151.696 117.847 151.688 118.074 151.595C118.507 151.42 118.946 151.259 119.39 151.112C117.41 147.703 116.363 143.668 116.363 139.437Z" fill="#B7092B"/>
<path d="M158.145 121.308C158.278 123.176 158.346 125.048 158.347 126.921C158.347 134.957 157.133 142.864 154.833 149.945C157.746 149.968 160.555 150.52 163.184 151.595C163.412 151.688 163.665 151.696 163.897 151.617C164.13 151.538 164.326 151.378 164.45 151.166C166.451 147.746 167.508 143.69 167.508 139.437C167.508 131.385 163.689 124.43 158.145 121.308ZM131.806 152.593V157.905C131.806 158.539 132.324 159.057 132.958 159.057H148.3C148.934 159.057 149.453 158.539 149.453 157.905V152.593H131.806Z" fill="#FE3745"/>
<path d="M135.725 157.905V152.593H131.806V157.905C131.806 158.539 132.324 159.057 132.958 159.057H136.877C136.243 159.057 135.725 158.539 135.725 157.905Z" fill="#B7092B"/>
<path d="M154.652 102.634H126.607C124.037 110.043 122.681 118.382 122.681 126.921C122.681 135.797 124.153 144.522 126.938 152.152C127.01 152.349 127.14 152.519 127.312 152.638C127.483 152.758 127.687 152.823 127.896 152.823H153.363C153.572 152.823 153.776 152.758 153.947 152.638C154.119 152.519 154.249 152.349 154.321 152.152C157.106 144.522 158.578 135.797 158.578 126.921C158.578 118.382 157.222 110.043 154.652 102.634Z" fill="#EEF6FF"/>
<path d="M130.204 152.152C127.419 144.522 125.947 135.797 125.947 126.921C125.947 118.382 127.302 110.043 129.873 102.634H126.607C124.037 110.043 122.681 118.382 122.681 126.921C122.681 135.797 124.153 144.522 126.938 152.152C127.01 152.349 127.14 152.519 127.312 152.638C127.483 152.758 127.687 152.823 127.896 152.823H131.162C130.953 152.823 130.749 152.758 130.577 152.638C130.406 152.519 130.276 152.349 130.204 152.152Z" fill="#D9EAFC"/>
<path d="M133.99 102.634V106.458C133.99 107.091 134.508 107.61 135.142 107.61H146.12C146.753 107.61 147.272 107.091 147.272 106.458V102.634H133.99Z" fill="#EA2A3D"/>
<path d="M136.602 106.458V102.634H133.99V106.458C133.99 107.091 134.508 107.61 135.142 107.61H137.754C137.121 107.61 136.602 107.091 136.602 106.458Z" fill="#B7092B"/>
<path d="M140.63 81.8223C140.397 81.8222 140.17 81.9024 139.988 82.0495C134.841 86.2177 130.505 92.5406 127.451 100.335C127.125 101.171 126.817 102.015 126.528 102.864H154.733C154.443 102.015 154.135 101.171 153.81 100.335C150.755 92.5406 146.419 86.2177 141.272 82.0495C141.09 81.9023 140.864 81.8221 140.63 81.8223Z" fill="#FE3745"/>
<path d="M142.263 82.8887C141.939 82.6021 141.608 82.3223 141.272 82.0495C141.085 81.8981 140.858 81.8223 140.63 81.8223C140.403 81.8223 140.176 81.8981 139.988 82.0495C134.841 86.2177 130.505 92.5406 127.451 100.335C127.125 101.171 126.817 102.015 126.528 102.864H129.793C130.083 102.015 130.39 101.171 130.716 100.335C133.573 93.0462 137.55 87.0454 142.263 82.8887Z" fill="#B7092B"/>
<path d="M140.631 135.27C147.124 135.27 152.388 130.006 152.388 123.513C152.388 117.02 147.124 111.757 140.631 111.757C134.139 111.757 128.875 117.02 128.875 123.513C128.875 130.006 134.139 135.27 140.631 135.27Z" fill="#445EA0"/>
<path d="M140.63 131.055C144.796 131.055 148.172 127.678 148.172 123.513C148.172 119.347 144.796 115.971 140.63 115.971C136.465 115.971 133.088 119.347 133.088 123.513C133.088 127.678 136.465 131.055 140.63 131.055Z" fill="#69CDFF"/>
<path d="M135.853 123.514C135.853 127.207 138.508 130.278 142.013 130.928C141.564 131.011 141.103 131.056 140.63 131.056C136.465 131.056 133.088 127.679 133.088 123.514C133.088 119.348 136.465 115.972 140.63 115.972C141.103 115.972 141.564 116.017 142.013 116.1C138.508 116.75 135.853 119.821 135.853 123.514Z" fill="#52BBEF"/>
</g>
<defs>
<filter id="filter0_d_333_3669" x="109.75" y="81.8223" width="61.7578" height="99.8613" filterUnits="userSpaceOnUse" color-interpolation-filters="sRGB">
<feFlood flood-opacity="0" result="BackgroundImageFix"/>
<feColorMatrix in="SourceAlpha" type="matrix" values="0 0 0 0 0 0 0 0 0 0 0 0 0 0 0 0 0 0 127 0" result="hardAlpha"/>
<feOffset dy="4"/>
<feGaussianBlur stdDeviation="2"/>
<feComposite in2="hardAlpha" operator="out"/>
<feColorMatrix type="matrix" values="0 0 0 0 0 0 0 0 0 0 0 0 0 0 0 0 0 0 0.25 0"/>
<feBlend mode="normal" in2="BackgroundImageFix" result="effect1_dropShadow_333_3669"/>
<feBlend mode="normal" in="SourceGraphic" in2="effect1_dropShadow_333_3669" result="shape"/>
</filter>
<linearGradient id="paint0_linear_333_3669" x1="140" y1="307.144" x2="140" y2="20.8099" gradientUnits="userSpaceOnUse">
<stop stop-color="#1A0B4E"/>
<stop offset="1" stop-color="#4630BA"/>
</linearGradient>
<linearGradient id="paint1_linear_333_3669" x1="140" y1="307.144" x2="140" y2="20.8099" gradientUnits="userSpaceOnUse">
<stop stop-color="#1A0B4E"/>
<stop offset="1" stop-color="#4630BA"/>
</linearGradient>
<linearGradient id="paint2_linear_333_3669" x1="140" y1="307.144" x2="140" y2="20.8099" gradientUnits="userSpaceOnUse">
<stop stop-color="#1A0B4E"/>
<stop offset="1" stop-color="#4630BA"/>
</linearGradient>
<linearGradient id="paint3_linear_333_3669" x1="140" y1="307.144" x2="140" y2="20.8099" gradientUnits="userSpaceOnUse">
<stop stop-color="#1A0B4E"/>
<stop offset="1" stop-color="#4630BA"/>
</linearGradient>
<linearGradient id="paint4_linear_333_3669" x1="140" y1="307.144" x2="140" y2="20.8099" gradientUnits="userSpaceOnUse">
<stop stop-color="#1A0B4E"/>
<stop offset="1" stop-color="#4630BA"/>
</linearGradient>
</defs>
</svg>
